<svg id="Layer_2" data-name="Layer 2" xmlns="http://www.w3.org/2000/svg" viewBox="0 0 755.62 791.16"><defs><style>.cls-1{fill:#bfb29e}.cls-1,.cls-108,.cls-11,.cls-120,.cls-121,.cls-128,.cls-131,.cls-144,.cls-149,.cls-150,.cls-151,.cls-152,.cls-156,.cls-16,.cls-161,.cls-162,.cls-17,.cls-171,.cls-176,.cls-188,.cls-219,.cls-224,.cls-226,.cls-234,.cls-238,.cls-239,.cls-40,.cls-44,.cls-5,.cls-67,.cls-70,.cls-77,.cls-87{stroke-width:0}.cls-5{fill:#e2bea4}.cls-11{fill:#cfb6a2}.cls-16{fill:#3e3827}.cls-17{fill:#2c240f}.cls-40{fill:#d4510f}.cls-44{fill:#242513}.cls-67{fill:#836f5d}.cls-70{fill:#4a4131}.cls-77{fill:#1f2210}.cls-87{fill:#242515}.cls-108{fill:#4d4434}.cls-120{fill:#fbfbfb}.cls-121{fill:#c1b39e}.cls-128{fill:#473e2d}.cls-131{fill:#232413}.cls-144{fill:#c43e0e}.cls-149{fill:#1f2211}.cls-150{fill:#c5410d}.cls-151{fill:#1e2110}.cls-152{fill:#242414}.cls-156{fill:#202113}.cls-161{fill:#c7400e}.cls-162{fill:#fba247}.cls-171{fill:#222010}.cls-176{fill:#fefefe}.cls-188{fill:#3b3424}.cls-219{fill:#897663}.cls-224{fill:#212315}.cls-226{fill:#433b2a}.cls-234{fill:#222314}.cls-238{fill:#232317}.cls-239{fill:#e6ceb8}</style></defs><g id="Layer_2-2" data-name="Layer 2"><path class="cls-77" d="M209.4 46.51c-15.3 18.41-15.84 39.54-9.41 60.92 2.36 7.83.48 9.99-5.85 12.63-5.32 2.22-10.27 5.5-15.03 8.82-5.22 3.64-10.2 8.18-9.22 15.23 1.08 7.79 7.99 10.06 14.32 12.26 2.24.78 4.78.73 8.78 1.29-9.26 10.58-17.73 20.26-26.19 29.94-2.25 6.56 2.92 6.89 6.89 8.24 11.09-2.51 13.64-14.46 22.04-19.95 12.66-13.05 25.01-26.48 41.48-35.02 4.08-2.89 8.3-5.55 12.9-7.55 3.46-1.86 7.07-3.33 10.82-4.5 8.42-3.69 17.13-6.55 25.86-9.35 5.16-2.59 11.06-1.03 16.36-2.9 2.22-.72 4.4-1.53 6.72-1.93 4.81-1.24 9.82-1.95 13.69-5.5 5.69-8.68 1.29-13.2-6.93-15.02-9.34-2.06-18.76-.65-28.18.65-5.74.79-12.45 3.41-16.43-3.99-7.91-3.61-14.47 1.67-21.61 3.21-6.92 2.7-13.96 5.07-21.1 7.16-4.14 1.21-7.38.34-8.78-4.21-1.28-4.18-.09-7.36 4.02-9.1 5.7-2.42 11.37-4.92 17.17-7.14 27.74-10.69 56.17-18.52 85.86-21.36 4.57-.44 9.05-1.45 13.21-3.5 1.14-.64 1.89-1.6 2.25-2.85-3.6-8.37-16.19-7.31-18.2-17.35-1.36-3.22-2.24-6.63-3.78-9.79-4.97-7.61-12.81-12.17-19.26-18.22-29.58-.13-55.59 7.93-73.1 33.62-5.41 7.93-11.8 7.44-19.29 5.26Z"/><path class="cls-151" d="M209.4 46.51c14.22 9.5 13.71 9.13 25.21-6.69 12.1-16.66 27.74-27.5 49.77-26.77 5.94.2 11.98-2.72 17.97-4.2 5.17 4.77 12.06 2.11 17.84 4.19 1.11.38 2.26.68 3.4.96 8.97 2.65 19.2 2.86 24.42 12.74 3.9 4.83 8.35 9.12 12.99 13.19 1.74 1.55 3.78 3.01 1.45 5.67-1.05 1.33-1.45 2.81-1.19 4.47 1.31 3.47 5.25 4.41 7.02 7.42 3.93 12.49 2.39 15.02-10.02 15.53-17.82.74-35.47 2.51-52.64 7.68-3.84 2.82-8.02 4.42-12.9 3.56-7.31 1.4-15.12 1.39-20.69 7.53-6.7 6.54-1.31 6.84 3.75 7.2 12.51.91 24.6-3.8 37.21-2.59 8.13.78 12.83 3.1 9.17 12.23.77 1.2 1.81 2.06 3.14 2.59 4.74 1.48 9.5 1.04 14.27.16 5.15-1.81 10.5-1.46 15.83-1.44 30.94-1.09 60.64 4.93 89.53 15.55 5.88 1.7 11.62 3.73 16.58 7.5 4.33 2.08 8.35 5.19 13.61 4.37 7.15-5.42-.23-7.91-2.31-11.47-14.93-10.56-32.41-15.16-50.66-20.76 2.99-2.63 5.26-4.32 7.15-6.37 8.82-9.55 6.27-18.33-6.29-22.57-8.1-2.74-16.46-2.51-24.73-2.24-7.25.24-10.42-1.43-12.13-9.59-8.11-38.77-38.89-60.39-74.05-62.99-8.34 1.89-16.67 1.87-25.01 0-17.76 3.76-35.35 7.47-50.72 18.41-10.57 7.53-19.85 15.92-26.98 26.71Z"/><path d="M1.52 648.08c2.08 12.51 10.98 15.91 21.84 15.31 29.37-1.62 55.22-13.84 80.24-27.99 13.01-7.36 25.22-16.08 36.21-26.27 4.38-4.06 6.53-4.54 10.01 1.23 8.37 13.88 16.98 27.66 27.4 40.17 7.78-3.36 4.73-10.06 4.9-15.77-1.84-6.93-5.92-12.44-10.99-17.32-4.58-3-9.11-6.05-9.22-12.41-2.66-6.64-3.37-12.91 3.29-17.83 2.14-2.43 3.74-5.26 5.56-7.92 1.75-2.53 3.28-5.2 4.78-7.87 1.02-1.73 2.22-3.32 3.65-4.76a18.1 18.1 0 0 0 2.91-3.73c2.46-4.9 3.88-10.26 6.72-14.99 2.09-4.13 3.38-8.59 5.33-12.77 2-4.5 3.65-9.12 5.2-13.78 2.23-7.6 3.71-15.3 3.32-23.27-.25-3.99-.09-8.13-3.86-10.87-2.13-.58-3.71.39-5.12 1.81-2.49 3.48-3.22 7.68-4.65 11.59-.95 3.15-2.33 6.13-3.69 9.12-.97 2.44-1.65 4.98-2.71 7.39-1.05 2.36-2.15 4.7-3.28 7.02-1.32 2.8-2.75 5.55-4.2 8.28-1.58 3.23-3.09 6.5-4.86 9.64-1.41 2.77-3.23 5.27-4.96 7.84-1.37 2.29-2.49 4.7-3.88 6.98-2.6 4.18-5.37 8.23-8.51 12.02-2.68 3.41-4.8 7.24-7.92 10.31-3.7 3.96-7.6 7.74-11.41 11.59-1.17 1.12-2.27 2.29-3.38 3.46-2.59 2.73-5.21 5.42-8.31 7.6-6.09 4.19-12.29 8.2-18.55 12.11-5.01 3.86-10.76 6.54-16.07 9.91-8.71 5.18-17.75 9.62-27.45 12.66-4.82 2.52-10.07 3.76-15.31 4.78-19.68 3.85-24.13.76-28.02-18.94-.33-1.66-1.08-3.1-2.17-4.39-4.94-1.02-5.6 3.02-5.67 5.88-.21 8.8-3.74 16.45-7.16 24.21Z" style="fill:#222312;stroke-width:0"/><path d="M174.74 194.44c-3.1-1.75-7.27-2.26-7.93-6.84-21.1 24.55-32 53.97-40.33 84.6-4.38 16.11-7.78 32.43-8.35 49.15-.19 5.64-3.15 10.22-4.13 15.46-.18.38-.61.86-.5 1.12 9.56 21.97 1.35 45.36 5.41 67.76.19 3.93.37 7.86.56 11.8 2.12 4.38-.01 9.34 1.9 13.75-.01 2.6-.03 5.2-.04 7.8-.6 1.79-1.18 3.59-.45 5.49 10.53 1.15 13.71-6.37 16.7-14.14-.65-2.56-2.29-4.54-3.79-6.6-2.4-7.77-.9-15.68-.86-23.55.14-18.47.1-36.92-.22-55.35.06-6.45-.72-12.95.52-19.37 1.38-3.16 2.83-6.28 4.93-9.04 1.08-1.28 2.18-2.55 3.35-3.76 4.89-5.57 11.55-9.07 16.7-14.29 2.66-2.7 7.42-4.21 6.29-9.49-1.59-1.92-3.67-2.98-6.08-3.47-5.8-.69-9.11 4.47-14.89 7.36 4-17.82 6.68-34.35 11.17-50.51 1.76-11.35 8.58-20.35 13.71-30.16 2.89-5.53 9.02-10.13 6.34-17.72Z" style="fill:#232313;stroke-width:0"/><path d="M665.81 480.21c28.94-15.55 54.95-33.76 64.63-67.85 2.33-8.21 5.79-16.32 10.06-23.71 8.3-14.37 12.16-29.04 6.12-45.07-1.84-4.88 2.15-6.69 3.92-9.62 7.91-13.12 6.64-22.3-4.31-29.5-5.55-1.88-11.13-1.28-16.71-.16-16.33 2.58-30.4 11.93-46.41 15.48-4.88 3.35-3.25 6.2.66 8.89 8.76 1.63 15.5-3.17 22.5-7.1 3.32-3.7 7.76-3.94 12.28-3.9 6.09.87 12.53-5.75 18.29.92.14 7.64-5.24 12.54-8.97 18.23-3.29 5.02-8.23 9.14-8.42 15.81 1.06 6.98 12.38 2.31 11.92 9.77-.48 7.84-4.66 14.69-9.66 20.82-4.78 7.87-11.42 14.1-17.82 20.56-3.15 3.18-6.89 6.12-7.03 11.24.45 2.21 1.77 3.89 3.91 4.3 9.11 1.77 7.89 6.42 3.51 12.04-7.92 12.98-20.43 20.86-32.45 29.3-4.51 3.48-10.99 4.75-12.78 11.3 1.02 3.74-2.12 10.91 6.74 8.24Z" style="fill:#221;stroke-width:0"/><path class="cls-234" d="M553.1 676.53c34.33-32.31 50.58-73.41 57.31-118.96 1.63-11.03 4.33-22.08 2.71-33.42 1.86-5.56 1.27-11.35.89-16.96-.38-5.58 1.8-8.32 6.92-9.36l1.09.25.92-.64c.83-5.01-5.01-6.67-5.5-11.05-.35-1.13-.67-2.25-.88-3.41-.71-11.55.13-23.09-.43-34.62-.18-1.96-.68-3.83-1.54-5.6.18-2.77-7.01-1.64-2.76-7.7 4.19-5.98 1.84-14.55 1.31-22.02-.17-1.2-.46-2.38-.79-3.54-1.48-3.93-1.35-8.13-1.9-12.22-.17-1.2-.46-2.36-.81-3.52-2.53-6.26-3.92-12.72-3.59-19.52-.13-2.69-.55-5.31-1.62-7.8-2.76-4.86-6.27-7.82-12.1-4.63-1.93 2.33-2.41 5.09-2.38 8 1.64 12.13 4.16 24.14 5.44 36.33 1.39 4.4 1.86 8.92 1.77 13.53.08 2.64.44 5.24 1.02 7.81 1.54 4.47 1.46 9.09 1.25 13.73-.03 4.95.08 9.88 1.1 14.75 2.46 23.3 2 46.6.24 69.89-1.16 5.39-2.43 10.76-3.34 16.2-.57 5.14.09 10.41-1.68 15.42-1.67 12.42-5.33 24.32-9.47 36.09-.44 1.12-.79 2.27-1.12 3.43a83.468 83.468 0 0 1-7.39 19.54c-5.89 12.54-13.33 24.09-22.25 34.68-2.95 6.11-11.03 8.97-10.88 17.06 2.4 3.17 4.87 6.27 8.46 8.23Z"/><path d="m121.68 445.1-.36-6.07C62.91 485.37 19.36 541.76 2.47 615.94c-2.38 10.47-3.65 21.34-.95 32.14 13.47-6.18 7.16-20.49 12.35-30.07 2.57-1.82 3.31-4.72 4.41-7.41 1.59-4.86 3.12-9.76 4.87-14.57.87-2.63 1.63-5.3 2.56-7.91 1.22-4.13 2.75-8.14 4.67-12 1.01-2.41 2-4.83 3.64-6.92 3.22-4.32 3.93-9.77 6.53-14.36.89-1.34 1.83-2.65 2.79-3.95 2.68-3.74 3.95-8.25 6.74-11.9 1.23-1.79 2.64-3.43 4.28-4.88 5.33-4.61 5.92-12.18 10.75-17.09 1.98-2.55 3.73-5.29 6.21-7.41 3.61-2.73 5.03-6.96 7.32-10.61 4.09-4.84 7.76-10 11.82-14.83 3.75-3.87 7.17-8.03 10.18-12.51 2.91-3.74 6.42-6.91 9.76-10.23 3.28-3.49 6.81-6.72 9.99-10.32 1.22-1.83 2.57-3.64 1.29-6Z" style="fill:#202212;stroke-width:0"/><path class="cls-131" d="M211.89 680.72c10.7 6.74 21.4 13.48 32.09 20.22 2.88 4.38 9.86-2.13 11.9 4.51.62.95 1.42 1.7 2.37 2.31 14.39 8.75 32.72 6.22 46.6 16.4 1.03.54 2.11.94 3.21 1.26 6.13 1.04 12.39 1.6 17.86 5.03 1.56.98 3.16 1.88 4.85 2.63 3.09 1.23 6.19 2.4 9.45 3.13 20.06 3.42 40.18 5.01 60.44 1.94 6.04-3.54 10.12-9.71 16.9-12.42 2.16-.87 4-3.19 1.67-6-3.32-2.24-7.06-2.32-10.84-2.09-39.14 2.39-77.26-2.36-114.09-16.18-11.78-2.47-22.29-8.38-33.43-12.6-6.13-2.05-11.5-5.96-17.82-7.56-3.89.07-7.43-.57-9.23-4.67-2.56-3.23-5.9-5.51-9.28-7.76-2.72-1.54-5.54-2.75-8.75-2.69-7.63 3.13-10.36 7.59-3.91 14.51Z"/><path d="M592.96 362.24c4.92-1.06 7.3 2.91 10.48 5.29 3.88 2.07 6.22.09 8.14-3.06.45-4.61-.41-8.1-6.27-7.26-4.37.72-6.2-2.14-6.72-5.57-2.76-18.19-11.57-35.46-7.98-54.65.74-3.96-.28-8.26-.48-12.4-5.08 2.9-12.61-7.19-16.32 3.09 9.55 29.35-2.56 52.01-22.28 72.32-10.95 11-25.5 14.94-39.45 20.03-7.39 2.56-14.88 2.03-22.39.71-1.13-.38-2.28-.67-3.44-.94-24.34-6.41-44.69-17.86-54.7-42.69-1.03-2.55-2.15-5.61-5.99-5.31-5.86 5.58-3.81 12.34-2.89 18.95.63 1.94 1.64 3.67 2.84 5.3 16.01 21.09 36.57 34.43 63.37 37.13 5.96.07 11.92 0 17.87.11 17.97.77 33.05-7.17 47.87-15.88 12.25-9.05 20.68-21.38 29-35.23 3.21 5.1 3.22 10.19 4.91 14.65.93 2.25 2.12 4.28 4.42 5.41Z" style="fill:#1f2011;stroke-width:0"/><path d="M419.94 721.13c-5.02 5.87-17.06 3.3-17.55 14.61 1.95 2.28 4.54 2.41 7.25 2.18 5-1.34 10.11-1.38 15.24-1.23 3.23.01 6.46-.02 9.68-.24 1.94-.12 3.85-.45 5.74-.93 14.04-3.74 28.45-6.15 42.01-11.64 5.05-1.94 9.87-4.44 15.05-6.08 5.25-2.43 10.38-5.13 15.63-7.56 4.85-2.8 10.07-4.92 14.77-8 2.45-2.09 4.66-4.43 7.04-6.6 1.13-1.17 1.85-2.57 2.27-4.13 5.57-4.76 11.92-8.69 16.04-14.99-.41-4.62-2.24-7.96-7.41-8.36-1.75.12-2.95 1.08-3.87 2.48-.88 2.95-3.19 3.4-5.85 3.25-15.44 6.7-28.03 18.41-43.69 24.7-3.75 1.75-7.7 2.97-11.65 4.16-6.44 2.15-12.89 4.25-19.45 6.04-13.44 5.15-28.83 3.75-41.24 12.33Z" style="fill:#212211;stroke-width:0"/><path d="M558.07 221.25c-4.59-12.87-11.01-24.69-20.08-34.99-3.44.82-5.46 3.06-6.38 6.39-.13 8.18-5.49 5.48-9.6 4.32-15.49-4.39-31.27-4.85-46.89-2.04-36.46 6.56-58.29 29.37-68.81 64.1-.12 2.91 1.17 5.04 3.6 6.55 1.96.71 3.88.62 5.75-.29 3.67-2.51 4.94-6.58 6.58-10.37 19.47-44.96 72.5-60.54 118.36-34.75 3.61 2.03 6.68 5 10.85 6.06 3.42-.04 7.17.33 6.62-4.98Z" style="fill:#1e2111;stroke-width:0"/><path d="M439.78 732.85c-1.78.27-3.55.55-5.33.82-5.2 15.2.93 33.42 14.9 44.4 7.96 2.86 16.14 7.79 22.9-2.16 5.94-13.93 17.22-17.05 31.41-18.56 23.21-2.47 43.88-11.42 55.8-33.64.74-1.38.75-3.14 1.1-4.73 1.43-5.37 1.66-10.73-.11-16.08-2.25-5.28-6.12-7.96-11.97-7.49-2.42-1.12-4.94-.97-7.48-.66-3.18 3.95.8 5.06 2.74 6.99 4.35 1.94 8.83 3.79 8.39 9.84-.1 12.16-9.07 17.68-17.61 23.44-3.75 2.53-7.96 4.24-12.06 6.13-2.65 1.2-5.42 2.04-8.22 2.8-4.56 1.56-9.45 1.08-14.07 2.27-5.17 1.87-10.76 1.04-16.01 2.37-2.29.61-4.41 1.63-6.48 2.74-4.07 2.12-7.27 5.11-9.21 9.33-.76 1.31-1.52 2.64-2.47 3.82a10.38 10.38 0 0 1-3.77 2.33c-7.59-.12-10.64-5.36-12.88-11.41-1.71-4.62-2.06-9.72-4.85-13.95-2.97-2.09-.01-7.47-4.73-8.62Z" style="fill:#c23709;stroke-width:0"/><path class="cls-149" d="M558.07 221.25c-1.61 3.35-4.7 3.09-7.66 3.13-2.39 2.54-1.9 5.52-.57 8.09 8.19 15.88 13.46 32.87 19.43 49.6.96 2.68 2.27 5.45 5.91 5.44 1.87-2.94 4.94-4.13 6.78-1.11 5.09 8.37 5.76 0 8.16-1.81-1.42-25.81-13.12-46.41-32.06-63.35Z"/><path class="cls-238" d="M605.31 357.22c3.18 1.34 5.04 3.61 5.09 7.17 2.08 1.82 3.93.45 5.82-.41a38.01 38.01 0 0 1 9.72-4.44c2.42-.84 4.75-1.87 6.98-3.14 1.31-.76 2.52-1.68 3.71-2.59 2.38-1.8 5.06-3.1 7.75-4.36 2.31-1.11 4.62-2.19 6.95-3.26 1.97-.9 3.95-1.76 5.97-2.56 9.02-4.68 20.37-5.47 26.1-15.62-1.29-2.71-2.17-5.43-.29-8.24-27.05 10.16-53.19 22.22-77.8 37.44Z"/><path d="M347.3 790.78c39.09-.02 78.19-.03 117.28-.06 2.89 0 5.87.26 8.32-1.82-.51-.57-1.02-1.15-1.52-1.73a12.22 12.22 0 0 0-4.23-1.68c-20.09-1.44-40.21-.5-60.31-.51-8.99 1.15-17.58-2.28-26.44-2.85 9.05 1.04 18.02 3.31 27.23 2.1 2.97-.24 5.74-.93 7.81-3.29.34-1.63-.18-2.91-1.54-3.86-19.15-4.71-38.55-1.78-57.85-1.9-4.1.58-7.7 2.2-10.56 5.27-.78.92-1.38 1.98-1.77 3.13-.26 1.79.23 3.41 1.2 4.9.74.81 1.54 1.57 2.39 2.29Z" style="fill:#c3b39e;stroke-width:0"/><path class="cls-44" d="M211.89 680.72c-1.68-5.52-2.08-10.54 5.01-12.56 1.42-6.04-4.04-7.41-7.17-10.11-6.18-5.34-13.46-9.46-17.94-16.64-3.46-3.84-5.73-9.47-12.49-8.36-.85 5.81 1.96 12.05-2.08 17.47 8.77 13.27 19.79 23.94 34.66 30.2Z"/><path class="cls-149" d="M532.24 191.97c2.8-1.02 4.69-2.95 5.75-5.72-11.74-18.96-26.67-34.83-45.33-47.13-8.41-2.42-7.03 3.57-7.15 8.29.91 3.35 3.13 5.74 5.77 7.8 12.26 6.15 20.52 16.65 29.19 26.77 3.34 3.9 5.03 10.01 11.77 9.99Z"/><path d="M244.73 703.21c-6.18 11.49-10.43 23.55-10.92 36.75-.39 10.5.91 20.45 8.68 28.44 4.25.36 5.74-2.36 6.55-5.85-1.52-11.6-4.84-23.14-1.38-34.94-.51-8.12 3.44-13.96 9.6-18.67.65-1.13.47-2.14-.43-3.04l.07.06c-3.36-4-7.35-5.19-12.16-2.74Z" style="fill:#b7330a;stroke-width:0"/><path class="cls-152" d="M615.46 487.62c-.52 5.56 4.82 6.67 7.46 9.83 15.38-3.05 29.74-8.62 42.88-17.24-5.9.29-2.92-5.52-5.27-7.67-1.54-1.45-3.37-1.72-5.37-1.42-9.17 3.87-18.4 7.54-28.13 9.91-4.36 1.06-8.97 2.21-11.58 6.59Z"/><path class="cls-1" d="M472.89 788.9c19.62-1.05 39.62 2.27 58.84-5.43-15.71-8.18-32.64-4.46-49.07-5.18-2.45 4.31-13.2.27-10.17 10.1l.41.51Z"/><path d="M247.21 763c-1.57 1.8-3.15 3.6-4.72 5.39 1.63 2.39 3.26 4.79 4.89 7.18 1.11 4.25 4.43 6.09 8.15 7.52 1.92.64 3.9.97 5.93 1.1 9.41-.47 20 2.91 26.18-8.04-2.71-8.03-9.31-5.39-14.91-5.47-3.6.81-7.37 2.1-8.9-3.13-1.97-14.59-10.58-4.87-16.62-4.56Z" style="fill:#c33907;stroke-width:0"/><path d="M347.3 790.78c-.03-.76-.05-1.51-.06-2.27-6.8-4.93-15.29-2.21-22.57-5-2.15-.54-4.33-.86-6.56-.89-15.04-.23-30.08-.35-45.07 1.1-6.88 2.62-15.2-.95-21.33 4.94 5.23 3.89 11.28 2.08 16.94 2.12 26.21.18 52.43.03 78.64 0Z" style="fill:#cdbeae;stroke-width:0"/><path d="M251.72 788.66c6.77-1.31 14.09 2.1 20.48-2.4-4.73-5.55-12.84-.15-17.66-5.44-2.39-1.74-4.77-3.49-7.16-5.23-5.05 5.81-14.47-.24-19.23 7.99 6.59 6.48 15.33 4.78 23.56 5.08Z" style="fill:#c5b6a3;stroke-width:0"/><path class="cls-87" d="M118.9 405.69c1.53-16.98-1.87-34.15 2.21-51.07 1.76-7.29-8.52-10.33-7.12-17.81-.7.99-2.22 2.37-1.97 2.92 9.75 21.23.76 44.39 6.88 65.95Z"/><path d="M487.65 148.34c.26-3.84-1.28-8.65 5.01-9.22-5.85-5.54-12.41-10.03-19.84-13.21.46 3.65 5.64 6.31 2.24 10.76-1.52 1.49-1.63 3.26-1.04 5.18 3.74 3.85 6.7 9.35 13.63 6.49Z" style="fill:#242416;stroke-width:0"/><path class="cls-121" d="M472.48 788.39c.24-6.54 9.27-4.22 10.17-10.1-3.47-.8-6.94-1.59-10.41-2.38-7.39 4.77-14.81 2.25-22.22.05-.68 1.06-.76 2.17-.35 3.34 5.38 6.14 14.02 5.05 20.34 9.12l1.23.02 1.23-.04Z"/><path class="cls-152" d="M620.92 497.83c-5.86-.71-8.31 1.89-8.03 7.76.29 6.17.17 12.36.22 18.55 2.85-5.39 2.12-11.32 1.89-16.95-.2-5 1.94-7.51 5.92-9.36Z"/><path class="cls-44" d="M244.73 703.21c4.05.91 8.11 1.82 12.16 2.74.62-2.74 1.23-5.47 2.02-8.98-5.81-.52-9.52 5.51-14.93 3.98.15.79.4 1.54.75 2.27Z"/><path d="M287.11 1.39c8.34 3.67 16.68 3.68 25.01 0-8.34-1.88-16.68-1.81-25.01 0Z" style="fill:#191c0d;stroke-width:0"/><path class="cls-238" d="M729.52 304.29c5.57.05 11.14.1 16.71.16-5.54-3.51-11.11-2.99-16.71-.16Z"/><path d="M540.35 695.86c2.71-.15 5.42-.29 8.13-.44-3.8-1.3-7.61-2.61-11.41-3.91-.66.62-1.31 1.23-1.97 1.84.24 4.01 2.35 4.1 5.25 2.5Z" style="fill:#c64c19;stroke-width:0"/><path class="cls-144" d="M560.45 702.91c.04 5.36.07 10.72.11 16.08 2.94-5.38 3.84-10.74-.11-16.08Z"/><path class="cls-87" d="M121.36 431.24c-.19-4.64 1.91-9.6-1.9-13.75-.17 4.69-.93 9.47 1.9 13.75Z"/><path d="M487.65 148.34c-4-2.24-8.01-4.47-12.01-6.71-4.48-4.46-10.6-6.26-15.75-9.65-5.19-2.97-10.5-5.59-16.67-5.69-30.75 15.89-63.34 10.2-95.03 5.95-13.2-1.77-29.66-1.14-39.03-15.41-1.43-2.18-4.49-1.85-6.91-2.37-4.96 1.38-10.67-1.91-15.15 2.46-.77 1.26-.87 2.58-.32 3.94 5.98 10.45 9.85 23.8 21.62 28.26 14.61 5.53 28.88 12.85 45.22 13.61 21.62.99 42.2-2.1 62.4-10.14 10.47-4.17 22.09-9.43 32.64.97 14.67 1.07 29.3 6.33 44.03.45l-5.05-5.68Z" style="fill:#8f7a67;stroke-width:0"/><path d="m272.05 91.8 21.93-5.58c3.42-1.35 7.41.15 10.64-2.13 17.59-4.94 35.65-6.66 53.78-7.72 20.22-1.18 22.05-4.69 11.4-22.7-9.2-1.56-18.41-6.53-27.57.13-35.37 4.04-70.26 10.05-103.03 24.87-3.12 11.6-1.46 14.48 10.38 18.04 7.74-.52 14.44-5.79 22.48-4.9Z" style="fill:#fdfdfd;stroke-width:0"/><path d="M302.26 114.46c15.88 23.23 42.05 20.41 64.86 24.09 17.47 2.82 35.79-.06 53.67.79 10.29.49 14.58-10.9 24.32-10.29.75-1.36.55-2.56-.6-3.61-14.8-6.19-29.73-11.91-46.17-11.54-19.66 7.74-39.13 14.55-61.28 11.21-9.7-1.46-14.1-10.17-22.85-11.51-2.23-.67-4.67-.46-6.8-1.61l-5.16 2.46Z" style="fill:#947f6c;stroke-width:0"/><path class="cls-219" d="M287.1 119.07c0-.72 0-1.43.01-2.15-9.68 1.93-19.01 4.84-27.62 9.78-6.42 4.63-2.81 10.15-1.17 15.32 1.46 4.61 7.99 7.4 4.93 13.69 5.14 2.44 10.58 1.92 15.99 1.65 16.94-4.39 19.24-9.23 11.9-25.39-1.89-4.16-3.38-8.39-4.06-12.9Z"/><path d="M236.86 138.49c-17.57 7.82-30.55 21.15-42.61 35.59-1.23 3.45-.12 6.15 2.68 8.29 14.85-6.02 29.41-12.56 41.39-23.64.13-6.79.77-13.62-1.46-20.24Z" style="fill:#7b6b5c;stroke-width:0"/><path d="M362.29 38.9c-3.09-5.35-7.46-9.42-12.68-12.63-2.08-2.07-4.16-4.14-7.19-4.75-7.95-1.9-15.45 1.4-23.19 2.06-.68 1.06-.6 2.04.35 2.91-.24 3.58.86 6.8 2.6 9.85 12.23 9.12 24.77 16.28 40.06 6.48.86-1.29.87-2.6.05-3.91Z" style="fill:#564b3d;stroke-width:0"/><path d="M249.57 96.7c-6.87-4.05-11.36-9.47-10.38-18.04-4.97 1.96-9.82 4.3-14.92 5.81-9.3 2.75-9.31 8.59-6.7 16.31 3.43 10.17 9.56 4.68 14.85 2.86 5.82-2 11.44-4.6 17.15-6.94Z" style="fill:#e0cab3;stroke-width:0"/><path d="M196.99 182.16c-.92-2.7-1.83-5.39-2.75-8.09-8.67 4.71-11.63 14.9-19.51 20.36-6.55 11.99-13.2 23.94-19.6 36.01-1.89 3.57-4.55 7.11-3.29 11.65 4.96.41 6.11-3.78 7.66-6.89 8.07-16.15 18.64-30.34 31.88-42.62 2.93-2.72 6.45-5.51 5.61-10.43Z" style="fill:#75675b;stroke-width:0"/><path d="M262.01 153.97c2.19-2.24 7.47-2.98 2.38-8.08s-7.06-11.82-4.9-19.19c-3.93.33-7.25 1.97-10.05 4.71-6.41 8.21-3.51 17.2-2.21 26.07 5.82 2.56 10.67 1.08 14.78-3.51Z" style="fill:#847360;stroke-width:0"/><path d="M246.97 156.42c5.54-7.87.13-16.82 2.47-25-4.87 1.15-9.33 3.05-12.59 7.08-3.89 6.84-2.03 13.66.09 20.48 4.43 3.41 7.71 2.33 10.02-2.55Z" style="fill:#7f6e5d;stroke-width:0"/><path d="M362.09 41.4c-10.09 3.6-19.94 4.76-29.34-2.17-3.03-2.23-6.69-3.24-10.57-2.9 2.2 10.96 11.21 12.89 20.01 15.1 6.92 1.06 14.09 4 20.02-2.59l2.86-2.65c1.11-2.91 1.65-5.47-2.99-4.78Z" style="fill:#4c4434;stroke-width:0"/><path d="m319.58 26.49.21-2.93c2.72-3.4-5.3-7.23.45-10.51.92-.5 1.61-1.2 2.08-2.11-6.29-4.14-13.31-1.4-19.96-2.09 2.14 9.41 12.16 11.1 17.23 17.64Z" style="fill:#504a3b;stroke-width:0"/><path d="M307.42 112c1.6.75 3.21 1.5 4.81 2.24 8.43 1.15 17 7.11 25.19-.7-2.31-6.98-8.97-.89-12.51-4.16l-2.72-.75-14.76 3.36Z" style="fill:#b3a89c;stroke-width:0"/><path d="M362.22 48.84c-6.26 4.08-13.31 2.03-20.02 2.59.03.79.04 1.57.02 2.36 9.19-.04 18.38-.09 27.57-.13-2.52-1.61-5.05-3.21-7.57-4.82Z" style="fill:#2f2f20;stroke-width:0"/><path d="M324.9 109.39c3.45 4.15 8.43.83 12.38 2.54 19.91 5.31 40.14 6.05 60.56 4.39 16.3.23 31.25 6.34 46.6 10.69 3.06.7 4.01-.64 3.37-3.51-29.7-12.96-60.8-18.01-93.06-16.57-5.14 2.14-10.76-.25-15.92 1.7-4.64.25-9.28.5-13.92.76Z" style="fill:#f3f2f1;stroke-width:0"/><path d="M342.16 23.84c2.53.68 4.36 3.48 7.45 2.44-2.77-14.15-15.76-10.95-24.73-14.57-2.28 2.15-2.34 4.6-1.01 7.25 5.27 4.69 12.54 1.95 18.29 4.89Z" style="fill:#efeeed;stroke-width:0"/><path d="m447.81 123.5-3.36 3.51c.25.68.47 1.36.67 2.05 4.87 1.75 9.73 3.5 14.59 5.25 2.87.82 3.59-.47 2.99-3.05-3.18-6.01-9.88-5.27-14.89-7.76Z" style="fill:#dededb;stroke-width:0"/><path d="m462.7 131.26-2.99 3.05c4.89 3.35 9.51 7.29 15.93 7.32-.19-1.66-.38-3.31-.58-4.97-4.12-1.8-8.25-3.61-12.37-5.41Z" style="fill:#dcdad6;stroke-width:0"/><path d="M338.83 108.63c5.42.52 10.93 1.84 15.92-1.7-5.44-.72-10.82-.8-15.92 1.7Z" style="fill:#dbd9d5;stroke-width:0"/><path d="M324.87 18.62c0-2.31 0-4.61.01-6.92-.86-.25-1.72-.51-2.57-.76-.71.4-1.46.61-2.28.63-2.91 5.45-.84 7.49 4.83 7.05Z" style="fill:#afa99d;stroke-width:0"/><path d="M362.09 41.4c1 1.59 2 3.19 2.99 4.78 1.57-.02 3.56.04 3-2.25-.69-2.85-2.26-5.2-5.79-5.03l-.21 2.5Z" style="fill:#dcdbd7;stroke-width:0"/><path class="cls-77" d="M304.62 84.08c-3.71-.11-7.43-.25-10.64 2.13 4.15 2.29 7.73 1.73 10.64-2.13Z"/><path d="M121.68 445.1c-.91 1.54-1.81 3.09-2.72 4.63-.36 1.19-.73 2.39-.85 3.63-.83 8.26-10.23 15.4-3.6 24.57 9.64 13.33 17.68 28.41 36.61 31.22 12.09 1.8 23.88 8.09 36.22 1.26 1.42-2.61 2.83-5.22 4.25-7.83-6.88-9.33-17.02-6.38-25.27-4.85-16.47 3.05-26.52-3.86-33.2-17.48-6.09-12.42-4.65-24.05 5.42-34.32 5.53-5.64 8.43-13.41 14.42-18.79a39.03 39.03 0 0 0 3.79-4.43c7.33-14 8.97-28.72 5.5-44.07a17.13 17.13 0 0 0-1.14-3.71c-4.53-5.47-5.68-14.27-14.84-15.24-4.89 7.88-1.44 15.15 1.56 22.52 4.58 11.25 5.43 22.47-.79 33.47-.82.74-1.55 1.56-2.24 2.41-2.36 4.18-7.03 6.79-8.09 11.86-3.99 6.06-9.06 11.04-15.02 15.13Z" style="fill:#645747;stroke-width:0"/><path d="M89.05 482.56c-5.47 3.98-8.44 10.02-12.48 15.18-2.38 3.93-.58 7.53 1.82 10.22 9.66 10.82 17.88 24.91 32.14 28.73 19.82 5.31 40.13 12.57 61.4 6.18 3.09-2.64 4.43-6.19 5.2-10.03-9.9-7.91-21.77-2.92-32.63-4.69-23.08-3.76-40.8-13.37-49.28-36.39-1.26-3.42-2.88-6.96-6.16-9.19Z" style="fill:#594e3f;stroke-width:0"/><path d="M89.05 482.56c5.58 27.22 24.84 44.08 52.07 48.09 12.07 1.78 24.07.61 36.01 2.18 1.51-2.53 3.01-5.06 4.51-7.59-2.83-3.05-6.68-3.34-10.38-3.31-17.13.11-31.86-7.79-47.14-13.87-4.61-1.84-6.85-5.84-9.15-9.82-5.39-9.31-9.98-19.08-15.86-28.11-3.35 4.15-6.7 8.29-10.06 12.44Z" style="fill:#5c5143;stroke-width:0"/><path d="M51.53 532.9c-2.09.91-2.54 2.74-2.63 4.75-1.05 11.75 7.19 23.52 21.35 29.51 7.96 3.37 16.1 6.07 24.88 7.26 7.65 1.03 15.18 3.92 21.18 9.45 1.91.72 3.81.69 5.68-.14 8.81-9.17 21.93-7.93 32.3-13.34 4.98-2.87 6.66-8.3 9.8-12.61-1.5-1.45-3.31-1.69-5.27-1.36-10.05 7.02-21.83 3.51-32.63 4.44-24.48 2.12-46.44-6.02-65.06-22.37-2.87-2.52-5.89-4.6-9.59-5.61Z" style="fill:#494130;stroke-width:0"/><path d="M159.25 557.85c1.61-.02 3.22-.03 4.83-.05.99-2.47 1.97-4.95 2.96-7.42-14.15-4.64-29.25-3.09-43.7-7.53-11.93-3.67-22-8.7-30.79-17.27-7.01-6.84-12.83-15.45-23.42-17.56-3.04 1.43-3.71 4.58-5.16 7.16-3.25 6.34 1.47 10.4 4.84 14.08 10.36 11.35 22.12 21.08 35.66 28.62 5.12 2.85 10.42 2.7 15.68 2.5 13.05-.51 26.34 2.42 39.1-2.51Z" style="fill:#524739;stroke-width:0"/><path d="M21.37 595.43c-3.64 4.37-4.77 9.57-4.99 15.07 1.64 18.58 25.39 33.09 45.13 27.59 10.58-1.13 19.17-6.63 27.57-12.54-2.5-4.06-6.81-5.95-10.73-4.75-16.05 4.9-26.55-6.14-38.64-12.62-6.58-3.53-11.4-9.68-18.33-12.74Z" style="fill:#2d2c1c;stroke-width:0"/><path d="M99.1 470.12c7.16 17.19 9.87 34.98 32.16 44.35 17.04 7.17 33.15 9.29 50.37 10.76.97-2.46 1.95-4.92 2.92-7.38-1.76-6.28-6.84-6.18-11.92-6.38-9.48-.37-19.2-.46-28.05-3.95-19.03-7.51-30.45-21.55-33.23-42.14-.28-2.08-.71-4.07-2.32-5.58-4.15 2.63-7.55 6-9.94 10.33Z" style="fill:#605344;stroke-width:0"/><path d="m154.24 422.45-2.51 2.51c-5.7 8.73-9.44 18.31-13.08 28.05-5.18 13.86-1.72 26.06 5.46 37.92 1.08 1.79 2.38 3.41 4.1 4.63 8.45 5.97 38.76 2.52 46.56-5.3.75-.83 1.5-1.66 2.25-2.48.73-1.29.52-2.39-.64-3.31-9.22-2.64-19.09-1.63-28.19-5.34-11.22-4.58-17.64-13.81-14.89-25.27 2.21-9.2 3.74-18.9 9.65-26.9 3.09-4.18 5.24-8.64 2.36-13.9-2.86-2.4-4.53-.43-5.39 1.91-1.17 3.15-2.59 5.89-5.67 7.49Z" style="fill:#6c5c4d;stroke-width:0"/><path d="M194.77 490.26c-13.14 7.77-27.61 5.22-41.5 4.37-9.4-.57-16.78-25.6-12.36-37.93 3.78-10.52 7.23-21.16 10.82-31.74-10.4 13.68-26.64 23.56-25.29 44.51 1.34 20.73 17.2 34.05 38.11 31.27 8.89-1.18 18.29-2.47 27.03 1.86l3.18-12.33Z" style="fill:#685a4a;stroke-width:0"/><path d="M28.87 575.35c-3.9 3.3-5.12 7.66-5 12.55-2.68 4.85.34 8.66 3.68 10.48 10.79 5.91 20.48 14.34 33.44 15.64 6.63.66 13.12 2.21 19.43 4.18 8.44 2.64 16.27 2.37 23.72-2.67 7.94-2.16 13.82-7.6 19.99-12.57-1.96-2-4.52-2.46-6.88-1.52-14.37 5.75-28.53 2.35-42.74-.58-5.79-1.2-10.4-3.87-15.09-7.75-9.09-7.52-20.64-11.31-30.55-17.76Z" style="fill:#363221;stroke-width:0"/><path d="M69.13 508c9.29 8.8 18.3 17.91 27.93 26.31 12.3 10.74 28.27 13.22 43.39 15.39 8.4 1.21 17.69 5.28 26.59.67 3.11-1.54 4.66-4.09 4.88-7.51-18.3 1.89-35.36-7.4-53.88-5.79-4.96.43-11.03-5.23-15.68-9.16-10.19-8.6-19.63-18.04-25.79-30.17-3.72 2.52-2.67 8.5-7.43 10.26Z" style="fill:#554a3c;stroke-width:0"/><path class="cls-188" d="M28.87 575.35c5.98 7.4 11.58 15.35 22.64 15.22.81 0 1.94.01 2.4.51 20.39 21.91 44.96 18.91 70.22 11.89 3.39-1.63 5.9-4.15 7.6-7.49-3.89-3.9-8.37-1.97-12.84-1.54-25.38 2.44-49.68.8-69.48-18.35-4.83-4.67-11.11-7.05-17.93-7.6-3.02 1.69-2.47 4.65-2.61 7.36Z"/><path class="cls-16" d="M31.48 567.99c10.45 7.24 20.49 15.18 31.44 21.59 21.81 12.76 45.45 8.73 68.81 5.9.82-.84 1.64-1.68 2.47-2.52-2.37-5.61-7.52-5.52-12.34-5.84-8.1-.55-16.23.34-24.31-.54-1.18-.46-2.41-.79-3.65-1.04-23.27-2.54-41.37-13.81-54.96-32.68-2.49 5.05-4.97 10.09-7.46 15.14Z"/><path d="M179.31 633.05c4.28 2.41 7.6 5.78 10.03 10.04 7.61 2.33 12.5 11.45 22.1 8.86 4.17-3.22 8.49-6.4 3.85-12.37-15.69-8.34-28.73-19.38-38.71-34.45-4.3-6.49-4.39-15.63-12.33-19.74-10.14 4.59-9.65 11.82-4.99 20.09 2.73 4.66 4.72 9.91 10 12.54 3.35 5.01 6.7 10.02 10.06 15.03Z" style="fill:#312f1e;stroke-width:0"/><path d="M104.14 615.53c-27.94 2.64-52.82-6.35-76.38-20.21-2.57-1.51-3.84-4.29-3.89-7.43-2.91 1.82-2.41 4.77-2.51 7.53 5.17 10.27 16.7 13.15 24.04 20.49 13.03 13.03 29.27 6.05 43.67 9.62 5.05-3.29 11.86-3.95 15.07-10.01Z" style="fill:#322f1e;stroke-width:0"/><path d="M109.04 459.8c-5.84 22.86 23.42 54.59 47.17 53.13 9.56-.59 19.99-2.84 28.34 4.93 2.79-1.78 2.17-4.83 2.78-7.43-9.41-.66-18.82-1.36-28.22-2.26-21.88-2.11-31.77-18.16-43.23-32.92-3.28-4.23-1.07-8.39 1.89-11.1 5.21-4.78 3.98-9.35 1.18-14.4-4.05 2.61-7.41 5.92-9.92 10.06Z" style="fill:#635546;stroke-width:0"/><path d="M61.51 638.08c-22.97 3.77-33.44-12.91-45.13-27.59-2.93 1.81-2.41 4.77-2.51 7.52 1.94 8.61-5.56 20.79 6.54 25.32 13.93 5.21 28.28 3.42 41.09-5.26Z" style="fill:#2a2b1a;stroke-width:0"/><path d="M196.48 522.55c-2.85 3.74-3.76 8.2-4.69 12.65.63 15.65 4.49 30.26 14.31 42.8 2.38 3.04 5.42 5.31 9.42 2.04 2.04-2.97 2.11-6.39 2.27-9.79-.53-8.16-1.96-16.16-4.04-24.06-6.96-6.98-7.75-18.51-17.27-23.63Z" style="fill:#5e523f;stroke-width:0"/><path d="M164.25 585.39c9.9 24.6 23.05 46.23 50.15 55.19-1.37-9.09-6.95-15.32-13.79-20.86-8.64-7-18.79-12.78-21.56-24.9-3.26-5.67-5.8-11.75-9.81-16.99-1.66 2.52-3.33 5.04-4.99 7.55Z" style="fill:#373322;stroke-width:0"/><path d="M179.31 562.86c-.82.87-1.63 1.75-2.45 2.62-.12 11.69 10.42 18.14 13.8 28.12 7.94 4.12 12.73 11.49 18.39 17.96 4.29 3.3 8.28 7.52 14.57 5.11 2.57-2.01 1.3-4.26.41-6.49-1.07-2.11-2.23-4.17-3.35-6.27-10.68-12.92-23.41-24.09-32.64-38.3-1.81-2.8-5.1-4.16-8.74-2.76Z" style="fill:#4c4230;stroke-width:0"/><path d="M179.31 562.86c2.12 1.25 5.09 1.99 6.23 3.84 9.1 14.8 21.5 26.67 33.64 38.79 2.42-1.76 2.88-4.34 2.96-7.08-.07-1.96-.58-3.81-1.59-5.5-11.39-8.31-18.67-19.78-24.64-32.27-2.32-4.84-4.04-10.14-9.17-13.01-4.81 3.94-4.51 10.36-7.42 15.22Z" style="fill:#514735;stroke-width:0"/><path d="M169.24 577.84c-1.77 7.72 3.95 12.21 7.56 17.62 7.04 10.23 12.05 22.87 27.46 23.19 2.6-5.66-1.33-9.27-4.41-12.85-3.46-4.02-6.96-7.94-9.38-12.7-5.4-7.59-9.15-16.36-16.21-22.77l-5.02 7.51Z" style="fill:#3e3927;stroke-width:0"/><path d="M186.73 547.64c6.14 14.8 14.11 28.48 24.05 41.09 2.32 2.94 4.58 4.53 8.2 4.23 2.34-5.57.79-9.74-4.52-12.56-7.6-5.34-14.3-10.35-13.76-21.84.38-8.15-8.81-14.36-8.9-23.37-3.22 3.52-3.91 8.07-5.06 12.44Z" style="fill:#574b39;stroke-width:0"/><path class="cls-226" d="M94.08 587.93c6.11 4.97 13.27 1.71 19.91 2.43 6.76.73 13.85-1.27 20.21 2.59 5.1-3.25 9.35-7.35 12.45-12.58-9.52-10.8-17.02-1.77-25 2.54h-5.01c-3.1-2.94-6.78-3.09-10.67-2.22-1.77.48-3.37 1.31-4.91 2.28-2.37 1.57-5.24 2.48-6.98 4.97Z"/><path d="M196.48 522.55c4.55 7.89 5.88 17.9 14.99 22.78 2.55-1.8 2.66-4.44 2.5-7.18-1.6-5.66-1-11.63-2.29-17.35-2.4-7.89-1.11-17.18-8.68-23.13-1.22-.85-2.4-.8-3.55.15 1.09 8.49-2.63 16.41-2.97 24.73Z" style="fill:#655847;stroke-width:0"/><path d="M121.65 582.91c8.45.3 15.84-9.83 25-2.54 4.48-1.84 5.56-6.28 7.63-9.97-10.57-2.46-19.54 3.83-29.36 5.5-3.73.63-3.03 4.26-3.27 7.02Z" style="fill:#463d2c;stroke-width:0"/><path class="cls-128" d="M174.26 570.32c1.57 9.84 8.94 15.82 15.07 22.62l1.26.96c.42-.32.84-.64 1.25-.97-.9-11.39-10.89-17.82-14.98-27.46-2.08.96-2.5 2.82-2.6 4.84Z"/><path d="M199.46 497.82c.74-.17 1.48-.3 2.24-.4 3.15-2.62 3.34-6.26 3.48-9.93.02-1.2.13-2.42-.09-3.59-.63-3.34-.12-8.66-4.62-8.23-4.81.46-4.95 5.28-3.74 9.48.1.87.19 1.75.29 2.62 3.59 2.67 1.82 6.65 2.45 10.05Z" style="fill:#36301f;stroke-width:0"/><path class="cls-44" d="M169.25 618.02c-3.38-4.15-4.87-9.8-10-12.54-.24 7.03 2.74 11.49 10 12.54Z"/><path class="cls-176" d="M211.43 537.72c.01 2.54.03 5.07.04 7.61l3.27 24.99c.76 1.7 1.56 3.38 3 4.65 19.38 19.5 39.63 38.08 63.13 52.48 26.05 15.96 53.57 28.48 84.74 30.56 6.46-1.65 10.8 4.06 16.58 4.84 23.28 2.61 46.92 3.05 69.73-.5 28.46-4.43 56.72-11.73 83.02-24.5 7.57-3.68 13.35-9.89 20.07-14.78 16.55-22.06 37.22-41.57 43.62-69.97 1.36-3.3-.93-7.26 1.86-10.3l2.7-15.06c1.6-24.21 1.39-48.42.09-72.64-.22-4.61-.43-9.22-.65-13.83-2.06-4.38.11-9.37-1.96-13.75-.16-2.31-.32-4.63-.47-6.94-2.4-4.11.13-8.96-1.96-13.11l-5.58-37.01c-2.52-4.09.48-9.13-2.27-13.17-1.29-6.82-2.58-13.64-4.67-24.75-9.26 17.61-18.89 30.53-30.8 41.55-1.02 1.9-.9 3.96-1.04 6.03-1.05 14.74-10.82 28.05-22.63 30.99-14.68 3.66-27.46-1.35-36.62-14.42-.95-1.35-1.79-2.78-2.9-4.02-1.42-1.2-3.11-1.89-4.81-2.55-25.59-3.24-45.05-16.57-60.34-36.75-6.79.05-6.58 5.97-8.52 10.1-3.31 10.32-10.16 16.86-20.75 19.37-4.74 1.6-9.44 2.14-14.07-.37a44.305 44.305 0 0 0-7.87-3.27c-12.48-3.97-17.49-14.73-22.92-25.13-2.03-3.89-2.11-9.26-7.76-10.49-5.5.96-7.94 5.77-11.16 9.34-11.03 12.25-23.69 21.86-39.74 26.51-3.24.94-6.21 2.34-8.09 5.36-3.11 9.79-4.23 20.25-12.28 28.12-11.76 11.5-24.78 14.51-38.59 7.92-14.09-6.73-21.88-20.24-20.38-35.37.45-4.53 2.01-8.95 1.42-13.6-2.35-6.16-7.99-9.41-12.39-13.65-17.17-16.56-26.66-36.54-28.65-60.34-.46-5.5 1.41-16.16-10.41-8.23-8.47 7.49-16.94 14.97-25.41 22.46-1.75 3.53-2.86 7.18-2.03 11.18 1.34 6.03 6.44 9.53 9.87 14.1 8.56 11.4 11.91 24.18 11.93 38.12.23.72.35 1.46.35 2.22 2.3 4.87 4.09 10.09 9.04 13.14 1.79 1.25 3.68 2.38 5.37 3.78 4.7 4.12 8.89 8.74 13.14 13.32 14.2 15.75 20.8 34.13 19.19 55.37 3.68 24.68 2.69 49.69 5.57 74.4Z"/><path class="cls-176" d="m246.97 156.42-10.02 2.55c-13.81 6.88-27.94 13.21-39.95 23.19-18.87 17.1-32.93 37.83-45.15 59.94-5.25 18.72-10.2 37.5-12.67 57.19 8.77-1.41 11.56-11.49 20.11-12.03 8.81-1.14 14.4-6.39 16.62-14.6 11.17-41.38 37.42-66.6 79.52-75.16.81-.16 1.57-.56 2.35-.83 7.09-2.5 14.22-2.01 21.36-.28 33.33 5.03 58.36 21.28 71.88 53.13 1.65 3.89 3.44 7.69 7.99 9.03 1.24.23 2.48.23 3.72.09 9.39-2.75 18.78-5.59 28.54-1.55 5.23 1.67 10.04 6.11 16.07 2.47 5.61-9.19 8.78-19.41 15.5-28.39 24.31-32.46 56.34-39.85 93.89-32.23 6.7 1.36 13.26 3.39 20.51 5.28.25-5.35-3.24-8.47-4.99-12.26-8.13-7.76-14.17-17.31-22.15-25.32-5.31-5.33-10.29-10.17-17.38-12.64-15.08-.73-29.97-4.58-45.21-2.73-10.53-3.23-17.52 4.1-25.49 8.52-7.44 5.75-12 13.7-16.61 21.63-3.14 6.49-5.09 13.42-7.37 20.23-1.45 6.89-2.43 13.9-4.63 20.6-3.95 12.05-10.98 13.74-20.05 4.98-3.3-3.19-5.8-7.02-8.61-10.6-2.57-2.92-4.89-6.04-7.08-9.26-.61-.9-1.31-1.75-2.01-2.58-1.75-2.07-3.23-4.33-4.71-6.6-3.31-4.43-6.16-9.21-10.07-13.18-6.72-7.11-13.98-13.55-22.55-18.4-6.11-3.29-11.83-7.38-18.6-9.37-3.36-1.09-6.67-2.36-10.21-2.82-3.43-.62-6.91 2.42-10.32-.13-5.73-.12-11.45-.23-17.18-.35-5.02.82-10.03 1.63-15.05 2.45Z"/><path d="M359.6 257.27c-7.78-10.83-11.4-24-20.82-34.09-16.07-17.2-34.78-28.03-58.61-29.1-8-1.63-16.01-1.53-24.02-.07-23.42 3.34-43.23 13.53-59.04 31.23-8.98 10.06-17.33 20.94-20.58 34.02-2.88 11.58-6.96 21.43-17.25 27.98 1.18 1.94 3.11 2.26 5.14 2.37 3.19-.44 7.02-3.59 7.11 3.66.38 33.85 17.09 58.98 43.17 78.87 10.61 12.87 26.01 13.61 40.72 16.13 7.72-.09 15.44.07 23.16-.09 2.94-.14 5.73-.71 7.96-2.83 24.85-5.98 43.92-20.2 58.4-40.97 6.82-3.1 7.66-10.1 10.43-15.86 1.13-3.43 2.93-6.6 4.06-10.05.88-3.05 1.06-6.17 1.13-9.32.13-5.68-.41-11.42 1.44-16.96.69-3.18.71-6.37.07-9.56-2.3-7.24-1.62-14.63-1.06-22.02-.06-1.29-.55-2.39-1.4-3.35Z" style="fill:#1f1f11;stroke-width:0"/><path class="cls-108" d="M146.73 419.94c.05-.82.08-1.64.09-2.46 1.45-10.03-.42-20.12-2.25-29.64-4.45-23.3-5.7-46.74-6.71-70.27-.06-1.35-.7-2.32-1.44-3.31-1.6 2.64-3.2 5.29-4.8 7.93-3.17 6.43.93 13.72-2.4 20.13v59.96c2.75 7.2.28 14.77 1.54 22.08 7.24 5.46 10.83-2.25 15.96-4.42Z"/><path d="M136.42 314.25c-3.87 33.14 3.45 65.4 7.81 97.88.25 1.86 1.69 3.56 2.58 5.34 2.3.92 6.17 2.21 6.11-.9-.21-11.95 5.43-24.24-2.45-35.87-4.33-6.4-4.38-14.08-3.4-21.63 3.39-12.78-4.64-23.05-7.56-34.45l-.51-12.55-2.59 2.17Z" style="fill:#5c4e3e;stroke-width:0"/><path d="m146.73 419.94-14.98 4.94c-.69.55-.93 1.12-.72 1.7.21.59.42.88.64.88 1.68.84 3.36 1.67 5.04 2.51 4.2-2.49 7.79-5.59 10.03-10.04Z" style="fill:#32301e;stroke-width:0"/><path class="cls-87" d="M131.66 427.47c.03-.86.05-1.72.08-2.59-1.08-7.51 2.32-15.51-2.51-22.6 1.03 8.37-2.63 17.2 2.43 25.19ZM129.22 342.32c4.78-6.24 1.47-13.44 2.4-20.13-4.89 6.22-1.41 13.44-2.4 20.13Z"/><path d="M634.1 352.14c-.52.6-1.03 1.21-1.55 1.81-.7 6.8-13.9 6.42-9.69 15.06 3.08 6.33 11.43 3.08 17.06 5.38 5.02 2.05 9.6 4.89 14.3 7.53 3.71 2.09 7.9 4.22 11.79 2.35 8.34-4.02 16.91-2.85 25.51-2.51 8.03-9.2 18.35-15.92 26.86-24.63 1.12-1.43 1.39-3.22 2.02-4.85 6.07-12.15 19.51-20.07 20.27-35.27-10.72-5.34-18.86 1.71-27.64 5.72-7.7 11.31-19.31 18.16-30.28 25.48-11.42 7.62-24.16 3.61-36.45 1.87-4.29-.64-7.84 3.1-12.21 2.06Z" style="fill:#726352;stroke-width:0"/><path d="M720.4 352.28c-.77.82-1.54 1.65-2.31 2.47-.54 5.16 4.33 4.4 6.78 6.27 5.52 6.39-.4 10.06-3.83 13.5-5.91 5.92-13.14 10.23-20.82 13.68-2.49 1.64-4.64 3.69-6.97 5.53-2.69 3-5.94 2.13-9.23 1.44-4.09-.85-9.03-2.26-12.18.09-10.26 7.65-21.48 4.29-32.04 3.08-10.74-1.23-20.44.39-30.14 4.3-.42 2.51-1.14 5.06.95 7.23l-.04-.15c.9.95 1.94 1.73 3.1 2.34 10.14 2.03 20.28 2.72 30.63 1.14 9.41-1.44 18.86-1.5 27.78 2.79 5.82 2.53 10.31-.57 15.04-3.33 13.26-7.74 25.99-16.12 36.27-27.73 1.61-1.79 3.57-3.36 4.78-5.39 10.6-17.77 9.64-20.99-7.77-27.26Z" style="fill:#675a49;stroke-width:0"/><path d="M723.39 384.93c-12.31 6.04-21.34 16.99-34.02 22.55-5.45 2.39-9.32 8.25-16.27 7.45-19.04-3.37-37.17.7-55.08 6.71-2.65 3.92-1 6.87 2.12 9.5 22.4 1.31 44.55.44 65.82-7.81 3.21-.74 6.21-1.99 8.97-3.81 1.63-1.13 2.31-2.94 3.24-4.58 7.14-11.06 19.79-17.5 25.22-30Z" style="fill:#5d5141;stroke-width:0"/><path class="cls-16" d="M673.1 462.57c12.71-8.04 26.13-15.3 32.67-30.05-4.83-1.67-7.85 2.02-11.49 3.87-6.39 7.45-14.98 8.53-24.04 8.31-5.85.81-10.59 3.62-14.46 7.99-5.89 7.39-16.05 4.4-22.92 9.42-1.45 4.71 1.64 7.02 4.87 9.27 13.16 2.59 23.11-7.75 35.37-8.8Z"/><path d="M713.15 325.04c8.92-3.57 17.5-8.27 27.53-8.03-.65-7.66-6.38-4.7-10.34-4.65-4.02.05-7.52 3.45-11.88 2.37-3.82 2.74-9.82-.75-12.78 4.47-7.26 3.35-14.28 7.32-22.27 8.82-9.37 4.69-18.73 9.39-28.1 14.08.53 2.03 1.79 3.37 3.76 4.06 18.9-4.78 36.99-11.68 54.09-21.11Z" style="fill:#f2f2f1;stroke-width:0"/><path class="cls-70" d="M695.66 437.5c4.37.38 6.56-3.69 10.11-4.98q10.14-10.99-7.6-17.59c-.85.82-1.71 1.64-2.56 2.46-4.74 3.7-8.24 8.63-12.69 12.62-.43 1.05-.36 2.08.21 3.06 1.64 1.42 3.72 1.91 5.68 2.64 2.29.51 3.98 3.45 6.84 1.78Z"/><path class="cls-188" d="M673.1 462.57c-8.02-1.97-15.02.23-22.07 4.28-3.73 2.14-8.64 2.22-13.02 3.24q4.01 6.53 17.56 2.52c1.66-.02 3.31-.05 4.97-.07 2.28-5.73 9.4-5.35 12.56-9.96Z"/><path class="cls-238" d="m705.67 319.19 12.78-4.47c-4.45.95-10.64-3.09-12.78 4.47Z"/><path d="M587.71 597.98c.32-.74.63-1.47.95-2.21-5.7-7.58-9.21-1.5-12.68 2.27-8.15 8.85-14.94 18.9-23.9 27.05-22.1 21.27-51.65 25.46-79.05 34.6-28.85 9.62-58.38 6.12-87.81 4.86-9.12-.39-17.12-6.51-26.69-4.92-4.84.8-10.11-.49-14.17 3.46 1 6.51 6.93 6.75 11.29 8.1 26.9 8.37 54.2 13.75 82.37 7.09 8.71-2.06 17.4-1.48 26.13-1.61 9.75.53 18.89-1.66 27.46-6.3 9.14-6.6 19.52-11.11 30.14-14.07 15.59-4.35 28.9-11.96 40.67-22.74.81-.9 1.49-1.9 2.08-2.95 5-12.82 16.43-21.08 23.21-32.64Z" style="fill:#ead3bd;stroke-width:0"/><path d="M463.27 711.15c6.95-.27 13.08-3.13 19.18-6.07 1.5-2.41.26-5.48 1.9-7.94 2.44 1.93 3.51 6.96 8.17 3.58 16.86-5.31 30.19-16.74 44.89-25.81 2.89.19 4.28-1.67 5.42-3.91.96-.94 1.91-1.88 2.87-2.83 3.86-5.03 7.73-10.05 11.59-15.08-5.59-1.3-10.97-4.94-17.02-1.62-22.56 17.48-49.34 25.72-75.81 34.65-3.59 1.89-9.03 1.13-9.94 6.87 3.68 3.25 12.69 4.23 4.51 12.37-1.85 1.84-.97 6.56 4.25 5.79Z" style="fill:#e1c0a7;stroke-width:0"/><path d="M693.15 379.83c-9.13-1-18.33-5.75-27.2 1.77-2.45 2.07-6.14.18-9.18-1.69-8.67-5.35-16.86-12.19-28.28-10.28-1.24.21-3.43-.85-4-1.93-1.24-2.35.78-4.12 2.65-4.66 4.84-1.4 9.14-2.72 5.41-9.08-3.22-.51-4.88 2.25-7.29 3.45-3.21 2.1-6.19 4.72-10.37 4.7l-4.5 2.28-6.96 3.15c-.12 2.3-.25 4.61-.38 6.91 1.81 5.43.88 11.7 5.04 16.41 1.19.69 2.46 1.08 3.83 1.19 17.79-7.13 36.12 1.46 54.03-1.83 9.68-1.77 20.33-1.17 27.18-10.39Z" style="fill:#706252;stroke-width:0"/><path d="M655.57 472.61c-5.64-2.34-12.66 4.98-17.56-2.52l-4.99-7.54c2.51-2.77 1.19-5.59.16-8.42-2.09-4.21-3.89-8.56-5.94-12.79-.96-1.55-2.29-2.71-3.85-3.62-2.81-1.1-4.5-3.31-6.2-5.71-1.27-1.81-3.12-4.43-5.4-.68.36 3.74-1.54 7.7 1.16 11.18v4.99c3.69 13.2-1.1 26.93 2.51 40.13v-.02c13.4-4.93 28.55-5.18 40.11-15.01Z" style="fill:#363121;stroke-width:0"/><path d="M610.43 389.86c-.77 0-1.55-.01-2.32-.02-1.66 1.57-1.61 3.24-.3 4.99.21.77.27 1.55.19 2.34 1.59 1.38.54 4.13 2.71 5.21 12.42 1.11 24.68-2.16 37.31-.38 7.77 1.09 17.09 5.75 24.3-4 1.69-2.29 9.01-1.96 12.93.92 6.06 4.45 7.89-.26 10.39-4.04-3.67-6.46-9.54-7.69-16.11-6.23-16.4 3.66-32.77 5.25-49.06-.29-6.98-2.37-12.94 6.98-20.06 1.5Z" style="fill:#6b5d4c;stroke-width:0"/><path d="M555.29 625.54c7.57-8.47 15.36-16.76 22.61-25.5 3.05-3.67 5.27-7.57 10.76-4.27 4.6-12.04 9.62-23.97 9.49-37.21 1.08-2.25 1.43-4.42-.67-6.33-7.57 26.76-28.92 44.97-42.24 68.16-1.46 1.73-1.3 3.45.06 5.15Z" style="fill:#ead5c0;stroke-width:0"/><path d="M542.76 653.12c4.84-3.23 9.68 3.7 14.52-.02 10.13-10.02 17.09-22.08 22.52-35.11-10.52-2.38-12.25 7.13-16.99 12.57-5.15 8.65-15.78 11.29-21.37 19.47 0 1.22.42 2.26 1.31 3.1Z" style="fill:#e1c5ae;stroke-width:0"/><path class="cls-239" d="M562.81 630.55c6.66-2.84 9.1-11.39 16.99-12.57 3.59-6.29 6.98-12.66 7.91-20.01-10.55 9.14-21.57 17.92-24.9 32.58Z"/><path class="cls-152" d="m603.29 455.09-.09 72.64c4.68-10.36 2.12-21.32 1.97-31.91-.2-13.56 2.82-27.36-1.88-40.73ZM615.46 487.63c-1.39-13.34 2.75-27.03-2.52-40.13 1.34 13.35-2.82 27.04 2.52 40.13ZM612.95 442.51l.03-12.53c3.45-4.3 2.73-9.42 2.89-14.39-.36-2.23-1.6-3.99-3.05-5.63-.75-.11-1.5-.19-2.25-.24-1.54 9.43 2.52 19.31-2.73 28.6-1.12 1.98 3.18 2.93 5.11 4.19ZM607.81 394.83l.3-4.99c-1.68-5.13-3.37-10.26-5.05-15.39-.52 7.28.02 14.32 4.76 20.38Z"/><path d="M597.48 552.23c.22 2.11.45 4.22.67 6.33 2.77-4.96 2.74-10.34 2.35-15.78-3.77 2.26-2.33 6.2-3.02 9.45Z" style="fill:#e2d2c1;stroke-width:0"/><path class="cls-152" d="M600.68 427.5c-.2 4.7-.65 9.44 1.96 13.75-.27-4.63 1.92-9.63-1.96-13.75ZM610.72 402.37c-.9-1.73-1.81-3.47-2.71-5.2.55 4.3-1.91 9.21 2.6 12.7.04-2.5.07-5 .11-7.5Z"/><path class="cls-238" d="M590.41 357.27c-.24 4.56-.24 9.08 2.27 13.17.09-2.73.19-5.46.28-8.19-.12-2.04-.55-3.91-2.55-4.98Z"/><path class="cls-152" d="M598.25 407.45c-.36 4.52-.09 8.95 1.96 13.11-.26-4.43 1.73-9.19-1.96-13.11Z"/><path class="cls-108" d="M159.25 557.85c-9.97 0-20.09-1.11-29.87.23-20.32 2.77-33.84-9.06-47.28-20.74-7.16-6.22-15.17-12.29-18.13-22.18-7.83 3.33-5.26 13.96-12.44 17.74 16.8 17.31 35.05 30.16 61.15 30.68 11.64.23 23.52-3.33 35.32.63 4.46 1.49 7.88-3.46 11.25-6.37Z"/><path d="M94.08 587.93c2.75-.09 5.71.44 7.53-2.48-.02-1.69.91-2.45 2.51-2.53h12.53c-5.05-11.03-15.81-10.43-25.31-12.57-18.63-4.2-36.16-9.95-42.44-32.69-5.56 2.36-4.61 8.61-7.51 12.56-2.24 3.21-.55 5.59 1.91 7.43 15.86 11.87 30.96 25.06 50.79 30.28Z" style="fill:#463f2d;stroke-width:0"/><path class="cls-226" d="M94.08 587.93c-16.28-9.84-32.43-19.86-47.65-31.33-2.37-1.78-4.94-2.99-5.04-6.38-.81.88-1.63 1.75-2.44 2.63 4.95 19.21 21.78 25.12 37.06 32.22 5.32 2.47 12.01 2 18.08 2.87Z"/><path class="cls-5" d="M463.27 711.15c-3.18-2.36-4.65-5.13-.22-7.3 3.07-1.51 8.08-.92 6.1-6.52-1.49-4.19-5.56-4.1-9.27-4.09-1.62 0-3.24 0-4.86-.01-2.83-3.16-6.68-3.66-10.37-3.06-20.74 3.36-41.63.88-62.41 1.76-17.62.23-34.42-4.04-50.74-10.12-8.54-3.18-17.1-6.19-25.8-8.84-7.59-.36-14.8 1.75-22.01 3.67-3.6.96-7.28 2.47-7.94 6.93-.67 4.53 2.44 6.71 5.77 8.68 2.43 1.44 5.58 2.1 6.21 5.56.57 2.6 2.42 4.11 4.53 5.42 35.58 15.91 73.25 19.27 111.59 18.5 5.37-.11 10.74-.4 16.11-.61 14.56-2.81 29.43-4.3 43.33-9.98Z"/><path d="M449.76 778.34c.1-.79.18-1.58.27-2.37-12.91-11.26-14.11-26.82-15.58-42.29-2.96-.04-5.92-.07-8.89-.11-4.96 2.59-10.64-.39-15.62 2.04-2.52.05-5.03.09-7.55.14-17.03 1.69-33.95.75-50.85-1.68-4.47-.64-9.09-.32-13.64-.44-1.19 1.46-1.26 3.23-.29 4.59 8.56 12.08 11.83 26.05 14.58 40.22l62.73.42c9.21 5.54 19.23 2.36 28.92 2.73 2.34-.4 4.43-1.27 5.91-3.24Z" style="fill:#fefefd;stroke-width:0"/><path d="M292.24 703.24c-.93-1.64-1.86-3.28-2.78-4.92-2.94-7.55-11.22-8.95-16.62-13.73-13.97-12.41-25.42-26.8-37.34-40.91-9.36-4.71-17.42-10.8-22.76-20.15-1.74-3.04-3.46-6.9-8.36-5.51-13.79-1.9-18.47-14.93-27.58-22.56-.29 12.07 9.83 17.13 17.22 22.83 8.3 6.41 13.81 14.69 20.38 22.3 3.36 4.38-3.33 6.26-2.48 10.01 1.47 2.04 3.72 2.72 5.94 3.45 2.73.97 5.82 2.11 7.24 4.41 8.57 13.92 21.46 23.12 34.42 32.28 10.59 5 20.48 11.85 32.73 12.5Z" style="fill:#3b3524;stroke-width:0"/><path d="M257.31 708.11c-11.27 1-11.66 9.69-12.68 17.94 7.73-1.86 15.23-.84 22.57 1.95 2.86.91 5.7 1.85 8.58 2.68 8.58 2.07 17.37 2.98 25.99 4.86 3.04.7 6.13.96 9.24 1.01 4.05.17 8.22-.6 12.02 1.57 3.16 1.54 5.88 4.52 9.95 3.16 6.2-5.78 2.29-8.28-3.32-10.22-.79-.82-1.58-1.65-2.38-2.47-6.51-2.8-13.71-2.83-20.36-5.09l.13.11c-16.04-6.9-32.91-11.15-49.75-15.49Z" style="fill:#d13f07;stroke-width:0"/><path d="M329.66 731.06c3.28 2.69 5.85 5.55 2.51 9.92-1.23 2.4.08 4.36 1.07 6.38 2.84 4.78 5.32 9.74 7.06 15.04 2.04 6.45.22 10.92-6.44 13.17-2.66.9-5.35 2.03-5.29 5.65 4.47 7.64 10.38 5.15 16.34 2.35 2.43-1.71 4.85-3.42 7.28-5.14 4.35-17.85-5.83-31.05-14.29-44.81-2.24-2.48-5.2-2.63-8.23-2.56Z" style="fill:#c3350a;stroke-width:0"/><path d="M259.51 690.74c1.96-3.4.25-4.92-2.76-6.49-10.98-5.72-20.23-13.05-25.98-24.7-1.92-3.9-7.47-6.01-11.36-8.94-8.86 9.32-1.71 14.64 5.01 20.07 2.51 2.49 5.03 4.98 7.54 7.47 2.78 2.8 6.75 3.24 10.03 5.05 5.89 2.39 10.96 6.71 17.52 7.54Z" style="fill:#363120;stroke-width:0"/><path d="M224.42 670.68c-4.45-5.99-9.13-11.93-5.01-20.07-2.5 0-5-.01-7.5-.02-8.86 1.53-13.19-10.59-22.57-7.51 6.46 11.36 19.66 15.31 27.57 25.07 2.5.84 5.01 1.68 7.51 2.52Z" style="fill:#2e2c1b;stroke-width:0"/><path class="cls-44" d="M257.31 708.11c16.54 5.31 32.2 13.43 49.75 15.49-7.46-7.27-15.9-11.2-26.81-10.92-8.14.21-14.78-7.21-23.42-6.8.12.75.28 1.49.49 2.23Z"/><path class="cls-44" d="M306.93 723.49c6.23 3.92 13.08 5.35 20.36 5.09-5.87-5.36-13.04-5.53-20.36-5.09ZM241.98 683.2c-2.56-3.25-6.07-4.58-10.03-5.05 1.46 5.43 4.9 6.92 10.03 5.05Z"/><path class="cls-176" d="M575.19 287.52c-8.26-21.05-16.52-42.09-24.78-63.14-39.16-33.75-110.18-26.89-132.87 33.87-.85 2.27-1.94 4.45-2.91 6.67-.83 4.6 2.58 7.7 4.07 11.48 8.43 12.36 15.09 24.98 6.32 40.08-.91 5.47-1.99 10.95 2.05 15.76 9.61 29.65 30.79 45.13 60.87 49.71 6.64-7.78 10.36-17.28 15.37-26.02-4.65-6.89-12.41-2.98-18.36-5.33-4.28-1.15-8.04-3.24-11.23-6.36-.89-.68-1.86-1.23-2.87-1.7-3.98-1.35-6.84-4.01-8.94-7.57-5.27-6.21-9.96-12.76-12.33-20.69-.81-2.15-1.3-4.36-1.32-6.68.61-9.34-1.37-18.71 2.06-28.01 5.73-15.55 16.85-24.86 32.06-30 4.86-2.33 9.79-2.46 14.77-.4 18.9 5.42 33.02 15.97 38.51 35.81 1.46 3.92 1.38 8.02 1.36 12.11.41 15.76-4.62 29.41-15.73 40.72-2.73 3.89-8.31 6.5-5.8 12.76 12.98 1.74 24.9 6.77 36.75 11.97 20.09-17.44 37.04-45.8 22.94-75.03Z"/><path d="M490.32 392.21c6.45 19.06 25.01 28.27 43.72 21.69 16.39-5.76 25.98-24.04 20.89-39.83-14.86 7.14-28.63 17.45-46.44 16.03-5.83 2.65-12.35-.6-18.17 2.11Z" style="fill:#fda783;stroke-width:0"/><path d="M552.25 362.55c-9.87-11.52-22.9-14.03-37.16-13-.47-.28-.94-.56-1.41-.85-.54.04-1.09.09-1.64.12-4.42 1.32-7.64 4.08-9.69 8.21-9.04 5.85-11.87 15.3-14.41 24.92l-.16.98c8.3.83 16.59 1.42 24.85-.37 14.48-4.15 29.09-8.02 39.62-20Z" style="fill:#fda884;stroke-width:0"/><path class="cls-171" d="M427.07 332.24c0-5.85.01-11.69.02-17.54-5.15-3-7.97-1.45-8.14 4.43-.13 4.59.07 9.19.03 13.79 1.87 6.19-4.16 14.94 5.95 18.47.97-6.35-2.11-13.16 2.14-19.14Z"/><path class="cls-161" d="M424.93 351.38c-5.55-5.62-1.1-12.97-3.33-19.16-1.7-.03-2.91.72-3.63 2.27-1.79 10.54-4.2 21.13 2.32 31.06 3.94-3.11.66-9.95 6.29-12.19-.56-.67-1.1-1.32-1.65-1.98Z"/><path class="cls-171" d="M512.63 382.55c-8.28.12-16.57.25-24.85.37 8.33 2.94 16.62 3.49 24.85-.37ZM490.32 392.21c5.98-1.33 12.38.9 18.17-2.11h-21.57c1.13.71 2.27 1.41 3.4 2.12Z"/><path d="M527.59 700.73c-6.08.14-10.52 3.71-15.02 7.16-3.92 4.32-9.98 5.2-14.31 8.87a8.26 8.26 0 0 0-2.44 2.45c-1.49 3.84-3.54 7.64-1.1 11.84 2.39 1.24 4.69.41 6.99-.3 11.87-4.44 23.78-8.83 32.67-18.56 2.93-3.41 6.11-6.74 4.28-11.86-3.86-4.49-7.55-4.4-11.08.4Z" style="fill:#dc5b11;stroke-width:0"/><path d="M439.78 732.85c.93 2.68 1.87 5.36 2.8 8.04 4.02 1.99 8.01.29 12.02-.04 2.82-.55 5.55-1.53 8.42-1.89 1.73-.23 3.42-.61 5.06-1.23 1.61-.73 2.89-1.85 3.89-3.3 1.08-6.37 11.37-5.45 10.58-13.31-14.26 3.91-28.51 7.82-42.77 11.72Z" style="fill:#c84307;stroke-width:0"/><path d="M482.54 721.13c-2.05 6.23-13.11 3.34-12.44 12.31 1.25 1.41 2.84 1.65 4.6 1.42 1.11-.25 2.17-.63 3.2-1.11 7.75-3.65 13.33-10.07 19.73-15.45.73-.69.96-1.36.67-2-.28-.63-.55-.94-.81-.94-5.5.58-10.21 3.22-14.95 5.76Z" style="fill:#cd4b0d;stroke-width:0"/><path class="cls-5" d="M492.51 700.72c-7.37 0-2.79-9.03-8.37-10.77-5.02 4.51-5.05 9.59-1.7 15.13 3.56-.99 7.31-1.53 10.06-4.36Z"/><path class="cls-144" d="M527.59 700.73c3.6-2.06 7.13-2.22 10.58.34 2.55 1.88 4.92 1.76 7.11-.6-1.65-1.54-3.29-3.08-4.94-4.61-1.75-.83-3.5-1.67-5.25-2.5-3.5 1.44-6.77 3.12-7.5 7.37Z"/><path class="cls-40" d="M497.5 715.36c.05.98.09 1.96.14 2.94 5.02-3.42 12.2-3.72 14.94-10.41-5.03 2.49-10.05 4.98-15.08 7.47Z"/><path class="cls-234" d="M542.81 671c-2.94-.27-4.31 1.65-5.42 3.91 1.3 2.34 3.23 4.02 5.77 2.37 2.99-1.94.22-4.19-.35-6.28Z"/><path class="cls-131" d="M409.94 735.6c5.34.31 10.71.89 15.62-2.04-5.25.37-10.86-2.07-15.62 2.04Z"/><path d="M419.98 332.2c.54 0 1.08 0 1.62.02 1.14-4.39 1.76-8.84.52-13.28-1.46-5.23 2.6-3.68 4.97-4.24 11.37-5.73 6.15-15.18 4-22.77-1.8-6.36-6.74-11.83-10.29-17.69-3.78-3.15-6.75-7.17-10.79-10.04-.89-1.54-1.79-3.09-2.68-4.63-4.72-1.8-9.43-3.59-14.15-5.39-10.68-2.52-20.96-.49-31.14 2.7-.81.13-1.62.26-2.44.39-.29.86-.57 1.71-.86 2.57-.09 1.1.14 2.12.66 3.1 1.4 2.52 3.49 4.15 6.3 4.84 4.06.16 7.2-2.22 10.6-3.86 3.51-1.78 7.06-1.3 10.61-.17 2.5.75 5.01 1.46 7.45 2.36 2.47.84 4.82 1.89 6.78 3.68 6.61 5.79 13.84 10.96 18.13 18.94 1.58 3.5 2.45 7.22 3.35 10.91.29 1.12 1.13 2.24.9 3.33-.09.43-1.13-.73-1.89-.93-2.67-.71-5.33-1.49-8.01-2.23-2.41-.59-4.84-.89-7.31-.99-8.46-.11-16.94-.37-24.95 3.07-8.34 3.87-15.42 9.14-19.29 17.83-1.66 6.17-3.18-4.87-4.82-.08-2.75 1.87-3.14 4.96-4.02 7.79 1.81 3.46-1.86 7.74 1.62 10.97 2.49 1.76 5.1 2.76 8.11 1.3 6.05-4.41 10.38-10.56 15.77-15.62 10.49-9.86 16.01-10.53 28.31-3.85 1.49-.85 2.41-2.21 3.25-3.61 1.64-2.36 3.14-1.84 4.24.41 1.93 3.95 1.92 8.45 3.3 12.58a6.33 6.33 0 0 0 2.13 2.59Z" style="fill:#c83604;stroke-width:0"/><path class="cls-150" d="M410.01 264.2c2.38 4.66 5.49 8.52 10.79 10.04-2.05-3.11-4.11-6.22-6.16-9.32l-4.62-.72Z"/><path d="M532.56 710.68c-9.32 8.59-20.84 13.18-32.38 17.73 3.38 10.4 9.81 14.65 22.9 15.15 11.28-3.24 20.46-9.66 27.95-18.58 3.36-4.01 4.82-8.5 3.22-13.7-7.2-1.33-14.35-4.28-21.69-.59Z" style="fill:#fdab4e;stroke-width:0"/><path d="M455.02 738.32c-4.37-.23-8.61.18-12.44 2.57 1.65 6.26 2.65 12.78 5.11 18.7 3.07 7.38 7.61 13.72 17.36 8.87-6.04-9.15-4.46-20.83-10.03-30.14Z" style="fill:#ec6f1b;stroke-width:0"/><path d="M523.08 743.56c-8.21-4.18-17.67-6.47-22.9-15.15-1.7.63-3.4 1.26-5.09 1.89-1.53-.39-2.69.11-3.47 1.49 2.07 13.46 7.14 16.48 24.02 14.29 2.76 0 5.49-.1 7.44-2.52Z" style="fill:#fba446;stroke-width:0"/><path d="M532.56 710.68c7.24-.15 14.32 5.66 21.69.59 2.96-8.54-2.66-9.96-8.97-10.8l-7.11.6c-1.87 3.2-3.74 6.41-5.61 9.61Z" style="fill:#fa9c3f;stroke-width:0"/><path d="M515.64 746.07c-11.26.3-20.54-2.38-23.01-15.3-3.94-1.24-6.87.08-8.96 3.53.65 13.27 3.66 15.83 16.79 14.23 5.14-.33 10.58 1.15 15.19-2.46Z" style="fill:#fba041;stroke-width:0"/><path d="M475.19 733.63c-1.7-.07-3.39-.13-5.09-.19l-2.55 2.37c-5.79 12.12-5.06 20.93 2.27 27.47 2.62-3.26 5.24-6.53 7.86-9.79.99-6.84 2.31-13.73-2.49-19.85Z" style="fill:#f88830;stroke-width:0"/><path d="M469.82 763.27c-4.89-8.81-1.05-18.35-2.27-27.46-1.68.09-3.35.18-5.03.28-7.94 9.79-5.66 23.29 5.05 29.88.75-.9 1.5-1.79 2.25-2.69Z" style="fill:#f4812a;stroke-width:0"/><path d="M467.57 765.96c-6.62-9.13-10.31-18.75-5.05-29.88-2.5.75-5 1.5-7.51 2.24 1.33 10.72-2.05 23 10.03 30.14.84-.83 1.68-1.67 2.52-2.5Z" style="fill:#ef7723;stroke-width:0"/><path d="M475.19 733.63c.89 6.61-2.63 13.77 2.49 19.85 1.7-.64 3.39-1.27 5.09-1.91 6.52-6.23-.12-12.5.04-18.75-2.65-1.34-5.22-.98-7.75.35l.13.45Z" style="fill:#fd9137;stroke-width:0"/><path d="M482.59 733.24c.06 6.11.11 12.22.17 18.33 5.78-1.69 12.28.88 17.68-3.04-10.54.49-14.76-5.43-15.32-15.08-.79-.66-1.64-.74-2.53-.21Z" style="fill:#fa963a;stroke-width:0"/><path d="M634.1 352.14c3.72 4.09 7.34-.15 11.02-.12 1.08-.2 1.53-.85 1.35-1.94-.6-1.51-2.04-1.92-3.33-2.53-3.31.93-6.63 1.86-9.03 4.59Z" style="fill:#d5d2cf;stroke-width:0"/><path d="M614.89 362.11c5.24 2.38 8.15-.4 10.37-4.7-4.34-.39-7.49 1.86-10.37 4.7Z" style="fill:#f0efed;stroke-width:0"/><path d="M643.13 347.55c.92.81 1.83 1.63 2.75 2.44 2.71 1.67 4.54.78 5.71-1.98.08-1.26-.27-2.37-1.07-3.35-2.46.96-4.93 1.93-7.39 2.89Z" style="fill:#fafaf9;stroke-width:0"/><path class="cls-176" d="m650.52 344.66.12 2.93c3.71 2 5.97.5 7.4-3.04-.91-.82-1.82-1.64-2.74-2.46-2.04.03-3.91.36-4.78 2.57Z"/><path d="M344.91 783.57c-5.04-1.86-12.77 4.11-15.22-5.25-2-3.33-4.51-6.29-6.9-9.35-10.61 3.97-21.3 4.73-32.12.79-2.98.94-2.58 3.68-3.15 5.91-8.59 6.66-18.75 5.3-28.59 5.58 1.99 5.8 6.91 3.19 10.55 3.37 16.9.84 33.86-1.18 50.73 1.17l4.48.24c6.5 1.72 12.98 2.41 19.37-.43.26-.69.54-1.36.85-2.03Z" style="fill:#bd3a08;stroke-width:0"/><path class="cls-1" d="M449.76 778.34c-1.63.15-3.26.3-4.89.44-9.82 2.95-20.15-1.11-29.94 2.21h-7.52c-1.97 2.12-4.38 4.1-2.5 7.51 21.7-.03 43.41-.05 65.11-.08-4.47-7.94-13.53-6.67-20.26-10.09Z"/><path class="cls-121" d="M404.9 788.5c.83-2.5 1.67-5.01 2.5-7.51h-29.76c9.16 2.63 16.97 9.94 27.26 7.51ZM414.92 780.99c9.95-1.14 20.25 2.41 29.94-2.21-9.98.02-19.96.05-29.94.07v2.14Z"/><path class="cls-11" d="M344.07 785.6c-6.46.14-12.92.28-19.37.43 7.06 4.98 15.06 1.4 22.55 2.48l-3.17-2.9Z"/><path d="M267.17 725.69c-7.55-2.2-15.17-9.29-22.53.36-3.14 12.6-1.89 24.89 2.57 36.96 4.18 2.49 9.46 10.76 10.47-3.37 1.75 3.81 2.97 6.45 4.19 9.09 2.31-1.71 2.85-4.2 3.08-6.84-5.99-12.47-1.65-24.32 2.23-36.2Z" style="fill:#f2812d;stroke-width:0"/><path d="M267.17 725.69c-9.66 10.59-12.73 22.12-5.08 35.21 3.21 3.85 2.15 10.26 7.64 12.74 5.92.78 12.2-1.7 17.79 2.03.69-1.6 1.37-3.2 2.05-4.8 1.9-1.93 2.48-4.23 1.97-6.84-.64-2.05-1.94-3.42-3.95-4.31-16.21-7.19-16.46-7.68-13.11-25.52.38-2.02.56-4.02.33-6.06-1.91-2.79-4.92-2.18-7.64-2.45Z" style="fill:#fb9d42;stroke-width:0"/><path class="cls-11" d="M320.22 785.78c-15.15-4.07-30.57-1.47-45.86-1.91-5.22-.15-10.93 1.97-15.42-2.63-1.46-.14-2.93-.29-4.39-.43 3.9 8.27 11.65 4 17.66 5.44 16.01-.15 32.01-.31 48.02-.47Z"/><path d="M269.73 773.64c2.03-7-4.65-8.76-7.64-12.74-.07 2.61-.15 5.22-.22 7.84.07 5.74 1.56 9.19 7.87 4.91Z" style="fill:#f48f38;stroke-width:0"/><path d="M299.55 159.23c5.94 3.1 11.89 6.21 17.83 9.31 35.51 4.53 70.7 3.49 105.38-6.16 7.63-5.07 16.2-8.05 24.74-11.09.37-5.42-2.32-7.23-7.52-7.2-10.98.07-21 3.42-31.15 7.28-23.58 8.97-48.3 12.64-72.3 4.13-12.07-4.28-26.73-4.32-35.8-16.37-4.89-6.49-4.66-16.43-13.63-20.05-4.13 4.4-3 8.86-.22 13.4 9 14.73 8.11 17.24-7.68 21.84 3.2 2.11 6.79 2.31 10.46 2.17 3.57-.06 8.02-3.28 9.9 2.74Z" style="fill:#8d7764;stroke-width:0"/><path d="M397.84 116.32c-19.98-4.28-40.24-4.7-60.56-4.39-8.05 4.1-16.74 1.19-25.06 2.32 13.29 14.14 30.49 19.25 48.16 14.23 12.47-3.54 27.45-.85 37.46-12.16Z" style="fill:#95806d;stroke-width:0"/><path d="M324.87 18.62c-3.81-.84-5.34-3.25-4.84-7.05q-7.98 1.32-.24 11.99c2.44 1.05 3.29 6.84 7.43 2.74 4.49-4.44 10-1.46 14.94-2.46-5.08-4.01-11.5-3.56-17.29-5.22Z" style="fill:#736a5b;stroke-width:0"/><path d="M139.52 324.63c-.89 12.23 4.76 23.03 7.56 34.45 4.92 4.74 5.66 12.46 11.7 16.4 7.79-22.33-6.53-36.29-19.26-50.85Z" style="fill:#ebd8c6;stroke-width:0"/><path d="m169.58 388.81-10.45-11.11c3.31 15.46 1.37 30.34-4.89 44.75 7.26.57 6.36-7.01 10.02-10.03 10.34-9.79 11.22-13.73 5.32-23.61Z" style="fill:#695b4c;stroke-width:0"/><path d="M169.58 388.81c5 9.4-3.46 15.76-5.32 23.61 1.03 12.35-8.99 20.5-12.05 31.77-5.94 21.88-1.35 36.02 20.36 40.15 7.52 1.43 16 5.6 24.14.81 1.22-2.49 2.44-4.99 4.55-9.29l.95 11.81c1.33.68 2.44.42 3.33-.78 2.81-13.58-2.05-19.89-17.1-22.2-19.75-3.03-24.83-11.44-20.29-31.45 2.11-9.32 6.12-18.04 7.69-27.51.77-4.64 1.78-8.99-1.7-12.94l-4.58-3.98Z" style="fill:#6f6050;stroke-width:0"/><path d="M217.04 572.61c-.76-.77-1.53-1.53-2.29-2.3-.1 3.36-.19 6.72-.29 10.09 1.51 4.19 3.01 8.37 4.52 12.56l.33 5c4.89 5.11 9.44 10.71 17.18 11.58 1.18-.1 2.25-.5 3.22-1.18 1.56-5.37-4.58-7.52-5.02-12.06-3.94-9.34-12-15.62-17.64-23.69Z" style="fill:#e7d1bd;stroke-width:0"/><path d="M304.63 675.68c24.34 9.42 48.67 18.85 75.2 20.05.85-4.42-2.62-6.34-5.47-7.12-14.4-3.94-25.3-16.38-41.1-16.81-1.72-.05-2.79-1.68-3.98-2.83-11.72-7.9-25.72-10.75-38.1-17.18-11.15-3.24-20.84-9.06-29.48-16.75-.89-.77-1.85-1.45-2.84-2.08-8.88-4.18-15.33-11.28-22.18-18-3.93-3.86-8.03-9.34-14.86-4.44.58 1.66 1.16 3.33 1.74 4.99-1.01 1.82-.78 3.6.18 5.36 12.94 7.89 22.82 19.26 33.44 29.76 13.31 13.16 28.72 22.23 47.47 25.04Z" style="fill:#e3c3ab;stroke-width:0"/><path d="M221.81 610.53c9.62-.92 13.53 7.19 18.63 12.61 5.5 5.84 11.45 10.22 19.07 12.43 3.56-6.04-.34-10.34-4.09-13.8-5.63-5.19-11.35-10.47-18.46-13.78-6.9-1.54-10.27-9.32-17.65-10.02-.05 2.51-.09 5.02-.14 7.53l2.64 5.04Z" style="fill:#e4cab5;stroke-width:0"/><path class="cls-128" d="M224.59 620.52c-.35-1.66-.69-3.33-1.04-4.99-5.78 1.3-8.77-5.23-14.16-5.03-.34.54-.68 1.09-1.03 1.63 2.54 8.13 4.92 16.45 16.49 13.76 1.07-1.84 1.08-3.64-.26-5.37ZM209.39 610.49c-3.6-8.1-7.39-16.01-17.55-17.55 2.93 8.77 5.57 17.84 17.55 17.55Z"/><path d="M209.38 610.5c-10-1.7-11.45-11.95-17.55-17.55h-2.51c-.62 11.74 13.1 14.87 15.05 25.07 9.22 10.01 14.8 23.94 29.85 27.64 1.42-8.89-.47-16.22-9.48-20.21-9.67-.3-11.62-8.55-15.36-14.95Z" style="fill:#443d2d;stroke-width:0"/><path d="M104.12 582.92c-1.79-2.25-4.46-3.6-6.06-.86-1.49 2.56 1.58 2.99 3.55 3.39.84-.84 1.67-1.69 2.51-2.53Z" style="fill:#554a3a;stroke-width:0"/><path d="M174.16 392.79c.35 15.14-6.64 28.57-10.67 42.56-4.5 15.65 4.9 31.77 21.21 32.23 15.14.43 19.59 4.96 19.68 20.06 2.25 10.81 3.44 21.77 4.88 32.7.92 5.77-1.83 12 2.18 17.38-.35-25.91 1.1-51.88-2.24-77.7-1.27-4.73-2.06-9.46-7.31-12.12-9.29-4.71-12.02-13.07-11.66-22.96.26-7.06.39-14.16-3.15-20.67-3.62-4.6-7.67-8.71-12.92-11.47Z" style="fill:#756454;stroke-width:0"/><path d="M209.25 520.34c.04-7.76.15-15.51.09-23.27-.03-3.92 1.06-8.6-4.97-9.43-.72 0-1.43 0-2.15.02-.17 3.25-.35 6.51-.53 9.76 2.52 7.64 5.04 15.28 7.55 22.92Z" style="fill:#716555;stroke-width:0"/><path d="M432.37 447.21c-3.84 5.25-9.49 2.31-14.12 3.44-15.47 3.8-25.57-3.54-35.7-13.25-4.05-3.88-9.6-6.35-14.75-8.9-21.33-10.53-30.03-4.97-30.23 19.08-.2 10.93-.11 21.88-2.75 32.61-1.22 7.96.98 15.55 2.96 23.04 5.01 18.9 13.75 23.27 32.97 17.06 7.99-3.52 15.2-8.44 22.1-13.68 20.32-15.42 27.33-15.57 47.84-.17 1.99 1.49 3.93 3.04 6.09 4.3 8.11 4.26 15.98 9.75 25.82 5 4.88-3 7.62-7.21 7.45-13.09-1.49-1.8-3.13-3.37-5.64-3.58-1.18.1-2.21.54-3.12 1.28-4.35 5.88-9.41 3.45-14.32 1.08-6.45-3.12-11.36-8.12-15.73-13.64-.79-2.44 1.27-3.91 1.99-5.83-8.26-6.23 3.94-9.05 2.36-14.15 3.25-4.35-8.69 2.25-3-4.24 2.61-2.98 5.83-5.97 5.55-10.6-.64-.92-1.5-1.54-2.59-1.81-3.13-.53-5.65 2.2-8.76 1.62-1.9-1.54-2.27-4.29-4.42-5.59Z" style="fill:#212111;stroke-width:0"/><path d="M217.04 572.61c-.32 11.55 13.14 15 14.9 25.34 17.05 15.87 36.08 29.16 55.1 42.48 13.8 9.66 29.31 15.24 45.66 18.53 3.51.71 6.04 2.42 8.61 4.51 1.2.53 2.35.45 3.43-.32 19.58-3.26 37.97 5.2 57.4 5.75 21.31.59 41.94 1.08 62.91-4.16 24.06-6.02 47.49-13.44 70.35-22.94 8.37-3.48 14.22-9.67 19.89-16.25-.02-1.71-.04-3.43-.05-5.15-11.9 5.65-20.53 17.28-34.09 19.66-16.59 2.9-31.68 10.42-48.18 14.3-31.22 7.35-62.03 5.16-93.09 6.07-4.53-.65-7.83-4.62-12.6-4.63-36.26-4.97-68.73-18.51-98.26-40.45-16.39-12.18-31.85-24.97-45.12-40.41-1.86-2.16-4.39-2.05-6.85-2.3Z" style="fill:#ecd7c3;stroke-width:0"/><path d="m286.54 385.36-6.31-.3c-8.82 1.78-17.65 1.69-26.48.02-14.25-.6-26.53-7.13-39.06-12.92-7.12 16.15-4.94 30.93 7.26 43.67 10.86 11.34 27.07 14.76 40.16 9.27 16.41-6.88 24.47-19.99 24.42-39.73Z" style="fill:#fea783;stroke-width:0"/><path d="M475.01 500.01c1.05 2.08 2.93 2.6 5.05 2.67 6.54-23.15 4.09-46.34-.71-69.27-1.98-9.45-9.36-12.15-18.52-8.74-11.92 4.44-20.52 13.07-28.46 22.53.47 3.54-1.03 7.55 2.46 10.38 7.7-7.52 16.66-13.49 24.95-20.3 5.8-4.76 9.82-3.09 10.98 4.52 1.75 6.29.42 12.91 2.09 19.2 1.69 6.41 1.43 12.74.03 19.22-1.46 6.71-2.78 13.65 2.14 19.78Z" style="fill:#202111;stroke-width:0"/><path d="M372.32 517.76c-20.76 6.6-26.6 3.44-31.91-18.01-1.59-6.42-3.89-12.85-2.83-19.7.84-10.03 2.4-20.08-.82-30-1.51 14.62-10.16 27.63-9.47 42.78 1.28 28.06 19.01 39.84 44.99 29.74 1.4-1.59 1.6-3.19.04-4.81Z" style="fill:#e3cdb6;stroke-width:0"/><path d="M372.32 517.76c-.01 1.6-.02 3.21-.04 4.81 7.84-4.63 15.8-9.06 23.48-13.93 15.12-9.6 23.68-9.32 38.15 1.91 2.61 2.03 4.78 4.68 8.4 4.96 3.84-.94 8.06-1.6 5.18-7.31-5.66-4.82-11.26-9.7-16.98-14.44-4.36-3.61-28.6-1.45-33.13 3.84-7.17 8.35-16.55 13.65-25.05 20.16Z" style="fill:#e5d3bf;stroke-width:0"/><path d="M187.08 404.26c-.08 6.22.28 12.49-.34 18.66-1.4 13.9 2.73 24.57 16.57 29.62 3.9 1.42 2.9 5.84 5.89 7.48.87-21.86-6.03-40.63-22.12-55.76Z" style="fill:#796858;stroke-width:0"/><path d="M419.98 332.2c-.05-.85-.09-1.7-.14-2.54-1.76-2.6-9.65 2.7-7.17-6.01.86-3.03 1.09-8.68-5.22-9-.07 1.79-.14 3.59-.22 5.38-4.64 5.37-3.05 11.71-2.77 17.84.54 3.21 1.71 6.16 3.67 8.77 6.85 11.81 4.47 19.31-9.07 28.44-5.92 2.59-12.01 1.68-18.1.89-1.19-.1-2.35.04-3.5.37-2.15 1.39-3.7 3.04-2.63 5.87 2.26.97 4.51 1.93 6.77 2.9 5.47 1.48 10.95 1.54 16.42-.02 12.41-.82 19.2-8.05 22.27-19.53-.1-11.11-.2-22.23-.31-33.35Z" style="fill:#cb3a04;stroke-width:0"/><path d="M374.83 382.2c.88-1.79 1.75-3.58 2.63-5.37.57-6.84-4.53-10.47-8.34-14.85-7.72-6.79-7.11-18.35-14.47-25.35.27-3.18 3.41-6.81-1.41-9.21-2.77 5.65-5.54 11.3-8.31 16.96 4.84 10.89 8.68 22.42 17.59 30.9 3.4 3.24 6.45 7.77 12.3 6.92Z" style="fill:#ca3b0a;stroke-width:0"/><path d="M447.48 508.19c.2 3.8-3.87 4.57-5.17 7.3 12.02 9.3 18.07 9.36 30.31.27-9.48 1.15-17.08-3.97-25.13-7.58Z" style="fill:#dfcbb9;stroke-width:0"/><path d="M336.76 450.04c.27 10 .55 20 .82 30 3.47-10.81 3.5-21.63 0-32.44-.27.81-.55 1.63-.82 2.44Z" style="fill:#18190b;stroke-width:0"/><path d="M367.28 655.78c3.41 3.7 7.65 5.14 12.6 4.64-4.24-1.43-6.15-9.2-12.6-4.64Z" style="fill:#f7f0e7;stroke-width:0"/><path class="cls-161" d="M398.02 385.08c-5.47 0-10.94.02-16.41.02 5.47 2.48 10.95 2.39 16.41-.02Z"/><path d="M422.76 162.38c-2.8-3.14-7.46-3.72-10.12-2.59-27.06 11.4-55.33 6.67-83.22 6.98-4.05.05-8.39-1.23-12.04 1.78 7.42 6.17 14.83 12.34 22.25 18.51 19.67 0 39.25-2.58 58.95-1.9 3.38.12 6.43-1.17 9.08-3.31 5.04-6.49 10.07-12.98 15.11-19.46Z" style="fill:#887563;stroke-width:0"/><path d="M362.07 217.41c5.95 8.71 10.67 20.92 23.51 18.57 13.48-2.46 11.08-16.62 14.3-26.31.76-2.28.46-4.92.64-7.4-.79-1.25-1.88-2.14-3.25-2.69-9.25-1.84-18.7-2.14-28.06-3.03-7.02-.67-14.42.36-14.56 10.39l-.02-.03c4.67 1.95 5.58 6.56 7.43 10.5Z" style="fill:#806d5c;stroke-width:0"/><path d="M407.65 181.84c-21.54.29-43.07.57-64.61.87-2.87.04-2.97 2.35-3.42 4.34 3.3 4.26 6.6 8.53 9.9 12.79 10.13-3.22 19.64-8.32 30.99-7.4 7.92.64 14.58 2.38 19.16 9.23l.85.59c2.38-6.81 4.75-13.62 7.13-20.43Z" style="fill:#857260;stroke-width:0"/><path class="cls-67" d="M399.67 201.67c-.02-3.2 1.01-6.62-2.05-9.17-9.13-7.62-40.07-2.91-48.1 7.34.81 3.01 2.35 5.51 5.13 7.09 3.44-7.28 9.83-9.25 16.66-7.19 9.45 2.85 18.88 1.76 28.36 1.93Z"/><path class="cls-150" d="m362.04 256.88 31.14-2.7c-10.8-3.92-21.21-3.35-31.14 2.7Z"/><path class="cls-219" d="M299.55 159.23c2.19-1.62 3.5-4.27 1.28-5.9-4.55-3.34-7.9.4-11.19 3.15 3.3.91 6.6 1.83 9.9 2.74Z"/><path class="cls-224" d="M256.15 194.02c8.01.02 16.01.04 24.02.07-8-3.1-16.01-2.55-24.02-.07Z"/><path class="cls-67" d="M362.07 217.41c.53-5.63-.46-10.18-7.43-10.5 1.52 4.17 4.05 7.64 7.43 10.5Z"/><path class="cls-176" d="M288.55 375.37c31.11-5.96 46.94-27.66 58.01-55.07 5.22-12.92 4.97-26.07 5.48-39.37-2.35-5.25.26-11.13-2.06-16.39-8.13-36.66-32.38-55.94-67.94-63.01-8.32-1.61-16.65-1.29-24.99-.2-38.41 8.59-64.63 30.31-73.79 69.69-8.6 36.94 7.74 75.9 38.86 94.1 8.29-.81 16.83-1.14 21.01-10.33-.83-5.35-5.91-6.62-9.22-9.6-33.41-30.11-23.42-71.87 7.62-88.04 14.18-7.39 29.05-6.76 43.22 1.04 19.33 10.64 31.63 34.58 28.85 55.78-2.6 19.83-17.43 35.61-38.63 41.08-3.51 1.27-7.41 1.55-10.41 4.1 4.55 10.49 12.34 16.21 23.98 16.22Z"/><path d="M242.53 355.11c-6.8 3.33-13.61 6.67-20.41 10 8.57 7.55 19.56 9.31 29.94 12.53 9.13 1.53 18.26 1.25 27.41.15 3.04-.81 6.07-1.63 9.09-2.44-10.19-1.52-14.85-11.58-23.62-15.27-2.38-3.55-6.54-3.45-9.95-4.91-4.15-.6-8.3-3.89-12.47-.06Z" style="fill:#fba783;stroke-width:0"/><path class="cls-150" d="M357.27 319.64c2.15 2.64 4.45 3.87 4.98 2.67 1.72-2.45 1.51-5.52 2.64-8.17 1.46-15.08 1.06-30.18.26-45.28-.15-.71-.3-1.41-.46-2.12-1.03-2.37-2.75-3.98-5.23-4.75-1.36 6.69-1.65 13.37.21 20.02 0 3.36.01 6.72.02 10.08-2.94 5.7.67 12.22-2.24 17.93l-.18 9.61Z"/><path class="cls-156" d="m279.47 377.8-27.41-.15c9.12 3.58 18.25 3.36 27.41.15Z"/><path class="cls-224" d="M257.06 201.33c8.33.07 16.66.13 24.99.2-8.3-3.71-16.63-3.43-24.99-.2Z"/><path class="cls-156" d="M253.75 385.08c8.83 2.7 17.65 2.55 26.47-.02-8.82 0-17.65.02-26.47.02Z"/><path class="cls-17" d="m359.67 282.02-.21-20.02c-.22-.73-.45-1.45-.71-2.16-2.06 7.49-3.15 14.95.92 22.18ZM357.45 310.03c3.5-5.63 2.33-11.85 2.24-17.93-4.6 5.5-1.66 11.93-2.24 17.93ZM349.98 264.54c.02 5.54-.31 11.13 2.06 16.38-.42-5.49 2.21-11.37-2.06-16.38Z"/><path d="M610.43 389.86c.29 3.6 2.79 6.12 5.75 4.69 14.77-7.13 28.82 2.99 43.33 1.36 2.29-.26 4.55.54 7.01-.72 9.59-4.95 19.37-4.94 29.14-.31 2.39-.96 4.06-2.63 5.02-5.02 5.45-3.76 11.23-7.16 16.38-11.21 6.64-5.22 13.65-11.05 11.18-21.38-3.51-.33-7.47 1.16-10.15-2.51-8 8.67-22.04 11.33-24.94 25.08-19.51 7.06-39.42 10.47-59.93 5.39-8.59-2.13-15.19 3.19-22.79 4.64Z" style="fill:#6f5f4f;stroke-width:0"/><path d="M658.04 344.55c-2.47 1.01-4.93 2.03-7.4 3.04-1.59.8-3.17 1.6-4.76 2.4a29.1 29.1 0 0 0-.76 2.03c25.86 11.82 53.79-4.35 68.03-26.98-19.36 3.7-36.46 13.79-55.11 19.51Z" style="fill:#766757;stroke-width:0"/><path d="M612.82 409.97c.04 1.65.09 3.3.13 4.95 3.23 1.48-1.57 8.24 4.96 7.55 18.4-2.51 36.79-5.03 55.19-7.54-4.94-9.56-15.34-6.56-21.43-5.75-13.1 1.74-25.93.5-38.86.8Z" style="fill:#635646;stroke-width:0"/><path d="M728.24 357.26c-2.66 9.83-7.43 17.96-17.16 22.47-4.56 2.11-7.94 5.71-10.4 10.12 10.62-1.16 17.63-8.6 24.71-15.23 4.69-4.4 8.69-10.48 2.86-17.36Z" style="fill:#695a49;stroke-width:0"/><path d="m623.03 439.97 2.49 2.52c17.93 11.46 39.44 7.7 57.56-10.05 6.97-2.69 9.93-8.72 12.54-15.04-2.49.85-4.99 1.7-7.48 2.55-13.01 6.41-26.31 10.91-41.26 10.59-8.09-.17-16.11 3.13-24.29 4.2-1.03 1.84-1.08 3.6.44 5.23Z" style="fill:#534737;stroke-width:0"/><path d="M622.97 434.99c1.52.67 3.17 2.11 4.54 1.88 19.45-3.19 39.53-3.71 57.52-13.16 1.33-.7 2.08-2.49 3.11-3.77-21.81 8.34-45.08 6.76-67.64 10.02-1.36 2.75-1.93 5.11 2.47 5.02Z" style="fill:#584c3c;stroke-width:0"/><path d="M622.97 434.99c-1.98-1.1-2.45-2.95-2.47-5.02-.86-2.5-1.73-5-2.59-7.5-1.65-2.52-3.31-5.03-4.96-7.55l.03 15.06c3.72 2.95 1.37 12.02 10.05 9.99l-.06-4.98Z" style="fill:#3b3525;stroke-width:0"/><path class="cls-70" d="M683.08 432.44c-13.19 3.85-23.56 16.2-39.25 12.66-5.99-1.35-12.2-1.77-18.31-2.61 1.66 4.18 3.32 8.37 4.98 12.55 9.18 4.9 18.35 1.86 27.53 0 2.67-5.03 7.38-6.66 12.56-7.51 3.8-3.05 8.63-4.7 11.75-8.67 1.12-2.01 2.23-4.03.79-6.36l-.05-.06Z"/><path d="M680.67 437.43c-3.81 2.91-8.82 4.64-10.08 10.1 9.89.49 19.84 1.13 25.07-10.03-1.69-1.66-3.38-3.33-5.06-4.99-2.8 2.66-7 2.51-9.93 4.92Z" style="fill:#473e2e;stroke-width:0"/><path d="M658.03 455.03c-9.18-3.34-18.35.2-27.53 0 .84 2.5 1.68 5 2.51 7.51 8.98-.37 18.25.23 25.02-7.51Z" style="fill:#473e2f;stroke-width:0"/><path d="M680.67 437.43c4.28.33 8.06-.37 9.93-4.92h-7.46c-.82 1.64-1.64 3.29-2.47 4.93Z" style="fill:#37301f;stroke-width:0"/><path d="M344.74 663.15h-2.5c-9.96-4.45-20.59-6.96-30.76-11.07-25.05-10.13-45.32-26.46-65.61-43.23-2.08-1.72-3.93-3.07-6.4-.85h-2.51c3.84 6.52 9.91 10.6 15.87 14.94 4.06 2.96 6.12 7.55 6.69 12.64 9.6 6.58 20.42 11.07 30.08 17.55 11.02 9.1 25.75 10.24 37.6 17.54 14.35 3.28 27.62 10.01 42.01 13.21 27.06.02 54.17 2.11 81.09-2.13 5.88-.92 12.84-.55 14.76-8.56-15.34-.76-30.35 1.57-45.33 4.56-11.61 2.32-23.21-.24-34.31-2.64-13.75-2.98-27.99-5.04-40.68-11.95Z" style="fill:#e8ceb8;stroke-width:0"/><path d="M465.06 673.18c-11.32 7.34-24.52 6.44-36.92 7.19-20.21 1.22-40.55.33-60.84.33 2.7 8.74 11.04 7.35 16.44 6.91 26.09-2.13 51.89 4.46 77.9 1.82 1.29-.13 2.37-.53 3.42-1.2 27.86-7.37 54.84-16.68 77.7-35.1v-2.52c-7.6-2.97-13.28 2.24-19.68 4.53-10.41 3.74-21.4 6.1-30.45 13.02-9.36.73-17.65 7.29-27.56 5.03Z" style="fill:#e6c8b0;stroke-width:0"/><path class="cls-239" d="M492.62 668.15c16.68-5.95 32.83-13.4 50.13-17.55 5.75-7.62 17.79-8.95 20.06-20.05-16.16 14.95-36.97 20.58-56.61 28.72-4.77 1.98-11.99 1.55-13.58 8.88Z"/><path d="M465.05 688.22c-30.3-3-60.72-4-91.13-5.01-2.52-.08-4.99-.17-6.62-2.51-13.11-4.36-26.33-8.29-40.1-10.04.34 2.13 1.06 4.73 3.37 4.57 17.92-1.26 29.36 14.12 45.45 17.52 1.42.3 2.55 1.96 3.82 2.99 25.09 0 50.21.72 75.19-2.51 2.15-4.05 7.88-.95 10.03-5.01Z" style="fill:#e5c6ad;stroke-width:0"/><path d="M224.74 625.45c3.16 6.74 6.32 13.47 9.48 20.21 14.78 21.36 32.22 39.93 55.23 52.65 5.69-6.99-.38-6.78-4.72-8.01-3.1-.88-7.1-1.75-7.06-5.86.05-4.5 4.72-4.3 7.55-5.06 6.35-1.69 12.92-2.52 19.41-3.7-27.43-9.28-47.79-28.36-67.34-48.56-3.52-3.63-6.9-7.43-12.71-6.6.05 1.64.1 3.29.16 4.93Z" style="fill:#e0bea6;stroke-width:0"/><path d="M274.81 728.14c-11.04 20.37-7.06 29.86 14.8 35.28 10.85 8.01 31.42 7.62 40.14-1.16 4.35-4.38 8.82-9.23 4.94-16.33-.84-1.65-1.68-3.31-2.52-4.96-2.41-1.74-4.83-3.49-7.24-5.24-1.01-.83-2.07-.91-3.19-.25-1.07 16.85-1.07 17.05-19.04 17.15-4.87.03-11.84 2.96-13.69-4.75-2-8.31 4.19-10.74 10.66-12.44 1.21-.32 2.16-1.22 2.87-2.29-9.02-2.94-18.28-4.51-27.74-5.01Z" style="fill:#fda84d;stroke-width:0"/><path d="M302.55 733.15c-3.32.17-6.76-.16-9.94.6-9.82 2.35-7.16 10.78-7.46 17.23-.31 6.75 5.52 4.67 9.22 4.85 4.97.24 10.01.26 14.94-.28 19.28-2.08 20.58 1.17 12.8-19.51-2.77-3.01-6.98-.03-9.9-2.4-3.22-.17-6.45-.33-9.67-.5Z" style="fill:#fdac52;stroke-width:0"/><path class="cls-162" d="M312.22 733.65c2.7 3.29 6.54 1.84 9.9 2.4l2.81-.3c-3.82-3.22-8.35-2.14-12.71-2.09ZM334.7 745.94c-3.23 15.56-10.01 19.98-29.42 20.13-5.5.04-10.47-1.65-15.67-2.65-.01 2.48-.03 4.97-.04 7.45 10.86 5.53 21.72 8.8 32.62.09 3.69 5.55 7.78 3.15 11.38.19 3.44-2.84 6.5-6.19 8.64-10.23-.68-5.91-3.59-10.7-7.51-14.99Z"/><path d="M342.2 760.92c-4.41-.02-6.19 3.15-8.37 6.31-2.75 3.99-6.56 6.27-11.65 3.72.24 4.76 2.99 6.96 7.5 7.36 15.66-1.17 17.48-3.71 12.51-17.39Z" style="fill:#f98d35;stroke-width:0"/><path d="M523.03 340.65c12.72-11.78 18.49-26.28 17.04-43.59-2.72-3.86.48-8.79-2.29-12.64-4.36-21.89-18.85-33.1-39.66-37.64-5.6-1.86-11.21-1.32-16.82-.09-27.58 7.65-41.27 31.25-35.83 62.66 6.49-1.27 4.31-6.76 5.26-10.73-.12-4.73.25-9.34 3.39-13.24 9.8-17.96 14.9-19.86 33.45-12.38 6.7-.78 11.81-6.36 18.8-6.23 9.48 3.95 15.75 10.1 14.38 21.26-.69 5.62 3.46 8.91 5.64 13.15 1.08 3.86.41 7.61-.76 11.32-.73 2.85-1.06 5.76-1.55 8.65-1.13 4.22-3.55 8.03-3.91 12.49-.03 2.74.36 5.3 2.86 7Z" style="fill:#1e2011;stroke-width:0"/><path d="m469.93 344.51 1.07.61 1.18-.36c10.83 8.01 22.52 6.89 34.46 3.26 7.17-3.1 12.85-7.61 14.71-15.69.27-2.71.2-5.25-3.24-5.95-6.8 1.71-12.63 5.92-19.7 7.16-21.08 3.7-34.9-5.89-44.54-23.6-4.67-2.29-5.38.69-5.64 4.25-1.6 10.58 6.96 15.9 11.93 23.08 3.53 2.04 6.22 5.22 9.77 7.24Z" style="fill:#8a7c6c;stroke-width:0"/><path d="M507.77 345.08c-11.89 3.01-23.76 3.35-35.59-.32.09 7.09 6.96 5.27 10.41 7.93 10.26 1.35 20.46 2 30.18-2.66-.27-.37-.42-.79-.47-1.24.21-3.34-2.72-2.84-4.53-3.7Z" style="fill:#262416;stroke-width:0"/><path class="cls-151" d="M507.77 345.08c1.51 1.23 3.02 2.47 4.53 3.7.93.26 1.86.52 2.78.77 2.65-2.97 5.3-5.93 7.94-8.9-.14-2.93-.29-5.85-.43-8.78-1.05-.87-1.8-.66-2.28.61l-12.56 12.59Z"/><path d="M512.78 350.02c-10.03 1.22-19.93 3.98-30.18 2.66 5.65 5.72 14.02-.95 19.76 4.34 3.47-2.34 6.95-4.67 10.42-7.01Z" style="fill:#e2d4cd;stroke-width:0"/><path d="M448.23 314.19c1.3-1.47 2.61-2.94 3.91-4.41 2.92-5.67 2.72-10.19-4.46-12.16-.71 3.91 1.29 8.33-2.2 11.72-.45 2.39.07 4.23 2.75 4.85Z" style="fill:#656054;stroke-width:0"/><path d="M469.93 344.51c-2.07-4.01-4.88-7.03-9.77-7.24 1.56 4.71 4.27 7.86 9.77 7.24Z" style="fill:#3c3b2f;stroke-width:0"/><path class="cls-149" d="m481.31 246.69 16.82.09c-5.6-2.18-11.2-2.79-16.82-.09Z"/><path class="cls-151" d="M537.79 284.42c.51 4.26-1.65 9 2.29 12.64.63-4.46.84-8.85-2.29-12.64Z"/><path class="cls-40" d="m482.59 733.24 2.53.21 7.5-2.67 2.46-.48c.85-4 1.7-8 2.55-11.99-10.18.93-14.33 11-22.57 14.87l7.53.06Z"/><path d="M407.15 339.31c.03-6.43.06-12.86.08-19.29-2.84-9.72-10.26-10.35-17.53-7.15-12.25 5.38-20.15 15.87-27.31 26.8.45.35.9.71 1.35 1.07 3.02.84 5.59-.45 8.18-1.67 4.7-3.25 9.94-4.29 15.56-3.81 4.79-.18 8.77 1.3 12.14 4.92 2.56 2.75 5.56 3.96 7.53-.88Z" style="fill:#2e1f0d;stroke-width:0"/><path d="m407.34 301.85 7.48.45c6.41-4.56 2.06-7.91-1.72-10.26-6.76-4.21-12.1-10-18.2-14.93-5.71-4.61-5.55-8.55.1-12.77-2.03-2.47-5.09-1.9-7.71-2.62-2.17-1.4-4.55-.91-6.9-.75-4.28 2.36-7.61 5.53-8.92 10.44.62 3.56 2.64 6.55 4.04 9.8 8.08 10.78 16.86 20.49 31.83 20.63Z" style="fill:#fd9d40;stroke-width:0"/><path d="M407.34 301.85c-12.86-3.74-22.06-12.37-30.11-22.53-3.9-1.15-5.85-3.54-4.9-7.76 3.28-2.49 5.97-5.45 7.54-9.31-1.54-1.76-3.23-1.67-5.01-.4-3.39 1.63-6.78 3.27-10.17 4.9l.26.54c-2.84 4.89-.72 10.22-1.35 15.29 3.83 8.55 9.34 15.87 16.26 22.16 9.04-2.06 18.19-3.09 27.47-2.88Z" style="fill:#fa923a;stroke-width:0"/><path d="M394.99 264.35c-3.3.83-8.19-1.57-9.43 3.4-.94 3.82 1.48 7.07 4.7 9.3 7.72 5.35 12.63 14.2 22.02 17.48 4.1 1.43 4.51 4.26 2.53 7.77 3.22 2.6 6.88 2.49 10.58 1.5.1-.03-.53-2.82-.82-4.33-2.25-2.63-3.27-5.95-4.98-8.88-4.05-9.24-16.13-12.44-17.67-23.57-1.53-2.91-4.52-2.07-6.94-2.68Z" style="fill:#fcac4f;stroke-width:0"/><path d="M379.86 304.73c-2.59-8.55-7.14-15.64-15.05-20.24-3.38 9.79.73 20.15-2.24 29.97l-.33 7.83c5.16-6.57 10.92-12.53 17.61-17.57Z" style="fill:#f58229;stroke-width:0"/><path d="M407.45 314.65c5.13 5.18.61 12.1 3.37 18.04 2.97-1 6-2.01 9.03-3.03 1-5.56-.82-10.92-2.83-15.67-2.82-6.69-6.85-6.84-9.57.65Z" style="fill:#d03805;stroke-width:0"/><path d="M401.93 267.03c-5.97 3.06-3.44 5.91-.03 9.19 5.33 5.12 10.38 10.54 15.54 15.84 4.8 1.1 3.35-2.58 3.72-4.87-4.01-9.02-11.62-14.59-19.24-20.17Z" style="fill:#faeee7;stroke-width:0"/><path d="M354.66 336.64c2.79 9.93 4.32 20.44 12.68 27.83 2.9-2.66 3.32-6.27 3.79-9.87-.49-6.43-3.42-11.45-8.8-15.03l.06.1c-2.58-1.01-5.16-2.03-7.74-3.04Z" style="fill:#fb9033;stroke-width:0"/><path d="M421.17 287.2c-1.24 1.62-2.48 3.25-3.72 4.87 1.61 3.21 2.01 7.58 7.13 7.41 2.5-5.1-2.63-8.08-3.41-12.28Z" style="fill:#f4d7bf;stroke-width:0"/><path class="cls-150" d="M374.86 261.85c1.67.13 3.34.26 5.01.4l7.42-.51c-4.18-3.34-8.32-3.43-12.43.12Z"/><path d="M239.46 607.99c7.72 5.95 16.23 11.13 23.02 18.01 17.02 17.25 41.57 21.29 60.28 35.54 5.38 4.1 12.94 1.01 19.48 1.61-.31-4.33-2.44-6.93-6.91-7.41-35.01-3.71-59.31-27.23-85.79-46.62-5.65-4.14-10.39-9.54-17.59-11.17-.25 5.41 6.43 5.63 7.52 10.04Z" style="fill:#ead2bc;stroke-width:0"/><path d="M289.59 653.12c-7.23-10.64-18.67-14.07-30.08-17.55 7.95 9.41 17.56 15.97 30.08 17.55Z" style="fill:#e6cab3;stroke-width:0"/><path d="M475.01 500.01c-2.61-13.38 6.8-26.71.15-40.1q-6.71 14.43-26.23 9.24c-6.95 2.19-3.94 9.15-6.43 13.48-2.54.82-8.5-1.79-5.04 5.04 7.13 4.81 12.99 11.73 22.12 13.25 4.42.74 8.86 2.79 13.03-.7.8-.03 1.6-.1 2.4-.21Z" style="fill:#463d2e;stroke-width:0"/><path d="M344.83 467.54c.74 6.72-2.27 13.87 2.32 20.15 12.55 5.17 18.03 3.26 27.16-9.46 2.18-3.29 3.84-6.82 4.65-10.71.33-5.9-2.39-9.56-8.13-10.96-8.64 3.7-18.63 4.23-25.99 10.98Z" style="fill:#4c4333;stroke-width:0"/><path d="M372.33 475.11c-4.36 12.28-14.28 13.4-25.18 12.57-.64 6.05 1.1 11.72 2.7 17.42 15.42 5.44 26.61-3.4 37.84-11.53 2.93-2.11 5.24-5.24 7.12-8.48.04-.81.05-1.63.04-2.44-6.07-5.15-12.68 5.43-18.69-.67-1.11-2.39-1.63-5.12-3.84-6.88Z" style="fill:#473f2f;stroke-width:0"/><path d="M344.83 467.54c8.16-3.75 18.64-1.7 24.98-9.99 3.66-7.89-2.82-12.51-5.87-18.25-8.95 2.07-13.43 9.58-19.06 15.7l-.04 12.54Z" style="fill:#514839;stroke-width:0"/><path d="M472.61 439.93c.16-10.19-4.1-13.82-12.43-6.78-8.94 7.56-20.54 12.56-25.36 24.45 4.4.33 6.57-3.68 10.05-5.15 3.39-1.71 6.65-3.66 10.12-5.2 2.76-.57 4.65 1.35 6.88 2.29 10.37 4.4 12.21 2.73 10.74-9.61Z" style="fill:#544b3b;stroke-width:0"/><path d="M424.95 460.05c-1.61-.86-3.21-1.71-4.82-2.57-3.65 1.87-7.27-.68-10.91-.07-12.35 3.34-9.1 11.92-6.78 20.19 17.55 3.37 24.93-2.39 22.5-17.55Z" style="fill:#443c2e;stroke-width:0"/><path d="M394.81 485.1c-12.59 12.06-27.56 18.77-44.96 20.01.48 7.6 6 8.92 11.36 7.22 14.58-4.64 27.95-11.32 33.6-27.22Z" style="fill:#342f1f;stroke-width:0"/><path d="M364.83 440.11c-3.58 7.31 6.08 10.84 4.97 17.44 4.02 2.21 7.32 4.95 7.51 10.02.77 6.03 4.15 4.2 7.5 2.5 2.38-.97 4.06-2.64 5-5.04-.26-.48-.52-.95-.77-1.43-2.61-2.7-5.57-5.03-8.25-7.67-6.63-2.35 1.17-3.19.54-4.93.62-2.39-.39-4.48-1.12-6.61l-10.95-4.53c-.91-.76-1.94-1.03-3.1-.8-.44.35-.89.7-1.33 1.05Z" style="fill:#454031;stroke-width:0"/><path d="M344.87 455c8.46-2.53 13.05-10.27 19.96-14.89l.21-.58c.04-4.24-3.21-4.23-6.08-4.72-10.15-6.86-13.33-1.3-14.07 8.06-.32 4.02-.03 8.08-.02 12.13Z" style="fill:#524b3b;stroke-width:0"/><path d="M424.95 460.05c2.21 18.3-14.4 12.48-22.5 17.55.46 7.87 6.15 7.6 11.68 7.43 6.5-.2 11.44-3.21 12.64-9.69.93-5.04 2.46-10.65-1.81-15.29Z" style="fill:#423a2b;stroke-width:0"/><path d="M472.61 500.22c-13.1-.3-23.7-7.63-35.15-12.55 5.91 8.66 13.4 15.54 23.41 18.95 5.66 1.93 11.87 3.1 11.74-6.4Z" style="fill:#342e1e;stroke-width:0"/><path d="M372.33 485.14c8.4 7.21 14.94-2.35 22.53-2.49-2.38-4.3-3.39-9.97-10-10.07-4.18 4.18-8.43 8.28-12.52 12.55Z" style="fill:#2d2c1a;stroke-width:0"/><path d="M372.33 485.14c6.33-2.03 12.69-4.03 12.52-12.55l-.03-2.52c-2.74-.11-5.71.46-7.5-2.5-1.67 2.51-3.33 5.03-5 7.54v10.03Z" style="fill:#383321;stroke-width:0"/><path d="M447.64 452.56c-2.42 3.13-5.11 6.08-7.2 9.41-3.55 5.66.77 5.56 4.52 5.68 1.05.92 2.26 1.31 3.65 1.19 10.55-3.66 5.01-9.98 2.61-15.78-1.06-1.1-2.26-1.26-3.58-.5Z" style="fill:#453d2e;stroke-width:0"/><path d="M380.22 444.39c-.12 2.66-.25 5.32-.37 7.98.1 1.75.93 3.16 2.07 4.42 2.54 2.89 5.3 5.56 7.98 8.31l-.07-.07c6.58-1.2 5.69-4.9 2.46-8.58-3.74-4.27-8.02-8.06-12.07-12.06Z" style="fill:#454233;stroke-width:0"/><path d="M447.51 467.58c-.85.02-1.7.05-2.55.07-2.94 4.65-13.43 8.06-2.46 14.98 1.64-.75 6.43 4.91 4.6-.85-1.48-4.65.54-7.86.4-11.69.87-.56 1.16-1.11.87-1.67-.29-.56-.58-.84-.87-.84Z" style="fill:#282516;stroke-width:0"/><path d="M358.96 434.82c2.03 1.57 4.05 3.14 6.08 4.72l4.22.33c-1.03-6.59-3.92-9.4-10.3-5.05Z" style="fill:#bcbbb5;stroke-width:0"/><path d="M447.64 452.56c.8.04 1.6.07 2.41.07 5 .26 7.56-2.63 7.34-7.1-.09-1.86-2.98-2.04-4.87-.58-3.29 1.74-5.93 4.15-7.65 7.49l2.76.12Z" style="fill:#312a1a;stroke-width:0"/><path d="M409.22 457.41c3.61 3.48 7.24 4.24 10.91.07-3.63-1.45-7.25-2.84-10.91-.07Z" style="fill:#9b9892;stroke-width:0"/><path d="M452.53 444.95c4.54 4.29-1.66 5.12-2.48 7.68-2.76 4.66 8.09 11.63-2.54 14.95v2.51c5.63 5.95 13.74 4.82 20.66 7.03 4.55 1.46 6.89-1.32 6.87-6.03-.02-3.72.08-7.44.13-11.17-.97-6.65 2.19-13.82-2.55-19.99.13 8.71-1.52 14.12-10.66 5.79-2.92-2.66-5.93-4.89-9.42-.76Z" style="fill:#4e4333;stroke-width:0"/><path d="M362.33 339.57c2.64 4.96 5.27 9.93 7.91 14.89 1.4 6.13 7.42 6.65 11.52 9.51 2.11 1.09 4.26 2.1 6.58 2.7 3.82.79 7.36-.22 10.87-1.6 6.03-4.42 13.39-8.06 10.74-17.74-.93-2.67-1.86-5.34-2.79-8.02-3.03 2.65-4.67 1.14-6.53-1.71-3.24-4.96-8.13-6.41-13.86-5.25-.44 1-.39 1.97.15 2.92 1.4 1.52 3.16 2.62 4.64 4.04 1.76 1.86 3.16 3.93 3.78 6.45-3.77 11.22-8.89 4.01-13.66 1.02-1.51-1.56-3.18-2.91-4.88-4.24-2.09-1.64-3.69-3.95-6.4-4.75l-8.06 1.77Z" style="fill:#c63409;stroke-width:0"/><path d="M409.95 347.33c-2.28 6.6-5.81 12.16-12.57 15.01-3.05 4.73-8.07 8.81-5.12 15.52 2.52.9 5.02 1.02 7.49-.16 12.61-6 18.27-17.18 14.89-29.57-.92-3.39-2.99-1.32-4.7-.8Z" style="fill:#faac4d;stroke-width:0"/><path d="m382.48 362.21-12.24-7.74c-4 2.46-2.67 6.46-2.9 10 3.37 4.12 6.75 8.24 10.12 12.36.82.22 1.63.45 2.45.68.99.81 1.98.84 2.97-.01 1.02-5.13-2.71-10.13-.4-15.29Z" style="fill:#fb993a;stroke-width:0"/><path class="cls-161" d="M382.31 377.11c-.8.13-1.6.27-2.4.4 6.58 3.76 13.2 3.52 19.84.18-2.47-.1-4.94-.19-7.41-.29-1.3-1.51-2.97-2.26-4.93-2.39-1.97.04-3.71.62-5.1 2.09Z"/><path class="cls-151" d="M242.53 355.11c4.16-1.03 7.01 4.32 11.36 2.36 7.12 1.64 14.24 1.58 21.36.03 19.92.83 44.08-25.37 41.92-53.91-2.35-30.98-28.48-56.1-58.34-54.74-27.96 1.27-50.56 26.87-48.68 57.33 1.35 21.83 12.7 38.51 32.38 48.93Z"/><path d="M275.25 357.5c-7.12 0-14.24-.02-21.36-.03 3.68.87 7.36 1.74 11.05 2.61 3.44-.86 6.87-1.72 10.31-2.59Z" style="fill:#212214;stroke-width:0"/><path d="M362.58 314.47c4.64-9.7 1.04-20.02 2.24-29.97.04-5.74.08-11.48.13-17.22-5.83 15.48-1.1 31.48-2.37 47.19Z" style="fill:#ec802d;stroke-width:0"/><path class="cls-151" d="M447.68 297.62c3.43 3.34 3.88 7.77 4.46 12.16 11.34 29.32 42.19 37.54 65.98 17.58 3.15-1.52 5.63-3.69 6.85-7.07 1.21-3.09 1.22-6.46 2.19-9.61 2.06-3.29.84-7.47 2.94-10.74-3.06-5.1-8.82-8.38-5.66-16.75 2.26-5.99-5.99-13.42-16.89-18.4-.89.93-1.32 2.05-1.41 3.31q-.92 12.3-12.41 8.72c-1.63-.51-3.18-.69-4.57.58-.97 1.37-1.59 2.91-1.81 4.55-1.13 8.53-4.9 14.98-14 16.56-8.67 1.5-13.97-3.28-17.7-10.47-.76-1.47-1.86-2.71-3.38-3.5-5.74 2.88-4.78 8.11-4.59 13.07Z"/><path class="cls-120" d="M452.28 284.55c4.09 14.41 10.41 19.57 21.99 17.97 11.48-1.59 16.26-9.75 15.46-26.41.35-1.84-.28-3.03-2.23-3.32-12.56-13.17-27.58-8.15-35.21 11.76Z"/><path d="M487.49 272.79c.74 1.11 1.49 2.21 2.23 3.32 4.7 3.97 8.39 10.86 16.26 5.98 8.1-5.01 3.34-11.32 1.57-17.3-8.74-2.47-14.31 2.99-20.07 8Z" style="fill:#f4f4f3;stroke-width:0"/><path d="M522.75 319.68c-1.54 2.56-3.09 5.12-4.63 7.68.74 1.71 1.47 3.41 2.21 5.12.76-.22 1.51-.42 2.28-.61 1.53-3.23 3.05-6.47 4.58-9.7-.89-1.89-1.74-3.84-4.44-2.49Z" style="fill:#817663;stroke-width:0"/><path d="M530.1 299.94c-3.39 2.54-2.93 6.75-4.37 10.13.38 1.02 1.1 1.73 2.09 2.16 3.93-3.51 1.94-8.12 2.27-12.29Z" style="fill:#4b4838;stroke-width:0"/><path d="M527.83 312.23c-.7-.72-1.4-1.44-2.09-2.16-.99 3.21-1.99 6.41-2.99 9.62 1.48.83 2.96 1.66 4.44 2.5.21-3.32.43-6.63.64-9.95Z" style="fill:#6c6553;stroke-width:0"/><path d="M387.66 334.5c-.3-.71-.6-1.43-.89-2.15-6.43-1.09-12.1.08-16.38 5.45 1.34 2.27.98 5.74 4.55 6.43 4.66-2.69 9.71-4.87 12.71-9.73Z" style="fill:#f39d7d;stroke-width:0"/><path d="M372.32 271.56c-2.51 1.88-6.29 3.42-3.65 7.47 2.42 3.71 5.63 1.91 8.55.29.51-3.94-1.29-6.42-4.9-7.76Z" style="fill:#492a0d;stroke-width:0"/><path d="M389.89 465.1c-.15-5.12-3.56-7.81-7.51-10.1-2.63-.87-3.25.27-2.64 2.64 2.37 3.88 5.03 7.34 10.16 7.45Z" style="fill:#242314;stroke-width:0"/><path d="m379.74 457.65 2.64-2.64c-.85-.88-1.69-1.76-2.54-2.64-2.42-1.47-4.83-2.93-9.27-5.63 2.34 6.16 5.54 8.7 9.17 10.91Z" style="fill:#2e2919;stroke-width:0"/><path d="M379.63 347.6c2.71 7.45 8.8 8.19 15.15 6.82 5.71-1.23 6.74-5.41 4.37-10.52-6.12-2.08-12.25-4.13-18.52-.47-1.46 1.11-1.8 2.51-1.01 4.17Z" style="fill:#fccfb1;stroke-width:0"/><path d="M382.31 377.11c1.68.11 3.35.23 5.03.34 3.38-4.26 3.37-8.54.07-12.84-.99-2.14-2.9-2.39-4.93-2.4-10.98 4.84-.41 9.93-.17 14.9Z" style="fill:#fda340;stroke-width:0"/><path d="M387.41 364.61c-.02 4.28-.05 8.56-.07 12.84 1.67-.01 3.33-.03 5-.04 1.68-5.02 3.36-10.05 5.04-15.07-3.13 1.62-6.27 3.15-9.97 2.27Z" style="fill:#fca948;stroke-width:0"/><path d="M379.86 344.76c6.43-.28 12.86-.57 19.29-.86-.85-3.44-4-4.79-6.28-6.93-6.78-1.49-11.23.91-13.01 7.79Z" style="fill:#fdc3a5;stroke-width:0"/><path d="M379.86 344.76c3.77-3.54 7.54-7.08 13.01-7.79-1.19-1.97-3.14-2.34-5.21-2.46-5.55 1.52-10.66 3.63-12.71 9.73l4.68 3.36c.08-.95.15-1.9.23-2.84Z" style="fill:#fcb598;stroke-width:0"/><path class="cls-120" d="M262.18 279.08c-5.78-10.16-14.27-12.24-24.27-7.23-9.01 4.51-12.27 12.36-9.12 21.97 3.14 9.57 10.55 14.34 20.31 12.5 11.45-2.16 16.95-9.8 15.29-21.81.36-2.26-.75-3.91-2.22-5.42Z"/><path d="M299.86 327.29c-17.03 22.15-38.21 20.96-61.35 9.96 3.35 8.44 13.42 13.9 25.74 14.73 16.6 1.12 29.25-5.41 38.03-19.51 1.1-2.61 2.3-5.28-2.42-5.18Z" style="fill:#887a6b;stroke-width:0"/><path d="M262.18 279.08c-.16 2.18.06 4.2 2.22 5.42 2.15.94 4.24 2.11 6.48 2.78 6.32 1.9 11.55.31 14.03-6.1 2.03-5.25.13-9.75-4.8-12.55-6.31-3.58-10.95-.86-14.67 4.42-1.32 1.87-.17 5.1-3.26 6.03Z" style="fill:#f7f7f7;stroke-width:0"/><path d="M299.86 327.29c1.99 1.17 2.25 3.15 2.42 5.18 3.34-4.41 4.69-9.51 5.25-14.9.63-2.53 2.15-5.5-2.66-5.26-1.67 5-3.34 9.99-5.01 14.99Z" style="fill:#7a6f60;stroke-width:0"/><path d="M304.86 312.31c.89 1.75 1.77 3.51 2.66 5.26 3.56-4.72 1.82-10.09 1.87-15.24-4.86-1.55-2.52 3.68-4.53 4.81v5.17Z" style="fill:#60584a;stroke-width:0"/><path d="M304.87 307.13c1.51-1.6 3.02-3.21 4.53-4.81-.96-2.58-1.93-5.17-2.89-7.76-.55.03-1.1.06-1.64.08v12.48Z" style="fill:#4e4a3a;stroke-width:0"/><path d="M223.88 319.27c.77 1.39 1.21 3.04 2.28 3.89 1.16.92 2.53-.25 2.22-1.48-.45-1.78-1.63-3.37-2.5-5.04-.59.77-1.17 1.54-2 2.63Z" style="fill:#5e5748;stroke-width:0"/></g></svg>